<svg xmlns="http://www.w3.org/2000/svg" xmlns:xlink="http://www.w3.org/1999/xlink" width="24" height="24" viewBox="0 0 24 24">
  <defs>
    <path id="ic_add_circle_outline-a" d="M13,7 L11,7 L11,11 L7,11 L7,13 L11,13 L11,17 L13,17 L13,13 L17,13 L17,11 L13,11 L13,7 L13,7 Z M12,2 C6.48,2 2,6.48 2,12 C2,17.52 6.48,22 12,22 C17.52,22 22,17.52 22,12 C22,6.48 17.52,2 12,2 L12,2 Z M12,20 C7.59,20 4,16.41 4,12 C4,7.59 7.59,4 12,4 C16.41,4 20,7.59 20,12 C20,16.41 16.41,20 12,20 L12,20 Z"/>
    <rect id="ic_add_circle_outline-c" width="50" height="50" x="0" y="0"/>
  </defs>
  <g fill="none" fill-rule="evenodd">
    <mask id="ic_add_circle_outline-b" fill="#fff">
      <use xlink:href="#ic_add_circle_outline-a"/>
    </mask>
    <g mask="url(#ic_add_circle_outline-b)">
      <use fill="#0070FF" transform="translate(-13 -13)" xlink:href="#ic_add_circle_outline-c"/>
    </g>
  </g>
</svg>
