<svg xmlns="http://www.w3.org/2000/svg" width="24" height="24" viewBox="0 0 24 24">
  <path fill-rule="evenodd" d="M18.468494,11.764944 C18.4882753,11.764944 18.5067378,11.7675815 18.5258597,11.7675815 C18.8047758,11.770219 19.0770982,11.7979128 19.3448048,11.8407723 C19.9145058,11.9311068 20.4545348,12.1078196 20.9523637,12.3590419 C21.4290926,12.5990548 21.8649402,12.9050053 22.2500159,13.2670027 C22.5335476,13.5327313 22.7907043,13.8261537 23.012914,14.1472698 C23.6340463,15.0407244 24,16.1253981 24,17.29645 C24,20.3513394 21.5233834,22.827956 18.468494,22.827956 C17.5618519,22.827956 16.7086193,22.6050869 15.9536336,22.2186925 L15.9536336,22.2186925 L13.3873419,22.8655404 C13.0741383,22.9453249 12.7892878,22.6657495 12.8611598,22.3505677 L12.8611598,22.3505677 L13.4789952,19.6715227 C13.2640386,19.2211688 13.1150196,18.7365274 13.0266632,18.2301265 C12.9798475,17.9611011 12.9495162,17.68746 12.9435818,17.4059064 C12.9429224,17.3696407 12.9369881,17.3333751 12.9369881,17.29645 C12.9369881,17.0537996 12.9580881,16.8164242 12.9884194,16.5816863 C12.9989694,16.4979456 13.0121569,16.4142048 13.0266632,16.3317828 C13.0299601,16.3126609 13.0319382,16.293539 13.0352351,16.2737577 C13.1110633,15.8695602 13.2284323,15.4805283 13.3866825,15.1125964 L13.3866825,15.1125964 L13.4526202,14.9761056 C13.578561,14.7044426 13.7216456,14.4413516 13.8884677,14.1954043 L13.8884677,14.1954043 L13.9207772,14.1518855 C14.1733182,13.7865911 14.4706968,13.4562437 14.802363,13.1628213 C14.977757,13.0065492 15.1597448,12.858849 15.3542608,12.7263144 L15.3542608,12.7263144 L15.4208578,12.6821362 C15.65098,12.5304797 15.8942898,12.3979451 16.1468308,12.2812355 C16.3947562,12.1658447 16.6519129,12.0675977 16.9183009,11.9891319 C16.9215977,11.9878131 16.9248946,11.9871538 16.9281915,11.9864944 C17.4181079,11.8453879 17.93374,11.764944 18.468494,11.764944 Z M18.1323214,2 C20.0005321,2 21.5298881,3.52677908 21.5298881,5.3962782 L21.529,10.935 L21.3284951,10.8392751 C20.8765436,10.6349252 20.399469,10.4781039 19.9027315,10.3740009 L19.9023974,5.3962782 C19.9023974,4.47762805 19.1846354,3.71207913 18.2840246,3.63403977 L18.1323214,3.62749067 L5.3962782,3.62749067 C4.47812337,3.62749067 3.71213127,4.34478339 3.63404388,5.24469389 L3.62749067,5.3962782 L3.62749067,18.131033 C3.62749067,19.0492866 4.3460337,19.8163467 5.24489131,19.8945462 L5.3962782,19.901109 L11.9946252,19.902325 C12.0423668,20.0199171 12.0933878,20.1358975 12.1477416,20.2501394 L11.853,21.528 L5.3962782,21.5285996 C3.52935593,21.5285996 2,19.9992437 2,18.131033 L2,5.3962782 C2,3.52677908 3.52935593,2 5.3962782,2 L18.1323214,2 Z M20.2755245,20.2899497 L16.6223468,20.2899497 L16.5757497,20.2949021 C16.4081365,20.3308244 16.2789481,20.5578016 16.2789481,20.8324466 C16.2789481,21.1320594 16.432693,21.3749435 16.6223468,21.3749435 L16.6223468,21.3749435 L20.2755245,21.3749435 L20.3221217,21.3699912 C20.4897349,21.3340689 20.6189233,21.1070917 20.6189233,20.8324466 C20.6189233,20.5328339 20.4651784,20.2899497 20.2755245,20.2899497 L20.2755245,20.2899497 Z M18.5085195,13.0600131 C18.1492235,13.0600131 17.8576209,13.3319848 17.8576209,13.6670928 L17.8576209,13.6670928 L17.8576209,17.5987881 L16.3657612,16.0944447 C16.1112598,15.8546482 15.699241,15.8546482 15.4453905,16.0944447 C15.1908892,16.3348482 15.1908892,16.7239863 15.4453905,16.9637828 L15.4453905,16.9637828 L17.8192178,19.3004325 C18.0027713,19.4740572 18.24816,19.5699758 18.5091704,19.5699758 C18.7708317,19.5699758 19.0149186,19.4740572 19.1997739,19.3004325 L19.1997739,19.3004325 L21.5736012,16.9637828 C21.8281025,16.7239863 21.8281025,16.3348482 21.5736012,16.0944447 C21.3190998,15.8546482 20.9077319,15.8546482 20.6532305,16.0944447 L20.6532305,16.0944447 L19.1594181,17.6000023 L19.1594181,13.6670928 C19.1594181,13.3319848 18.8678155,13.0600131 18.5085195,13.0600131 Z M17.3190886,5.46848354 C17.9331951,5.46848354 18.4301223,5.96290133 18.4301223,6.5728272 C18.4301223,6.98185537 18.2068957,7.3366703 17.8751317,7.52867064 L17.7606811,7.58649162 L17.7606811,10.1589754 L18.8355082,10.1589754 C18.8995228,10.1589754 18.9646224,10.1654525 19.0253821,10.1784067 C19.1171164,10.1966609 19.2035726,10.2283357 19.2834571,10.2712861 L19.5680384,10.3123575 C19.2293872,10.2579658 18.8848973,10.2228204 18.5320662,10.2194732 C18.5078768,10.2194732 18.4845216,10.216126 18.4594981,10.216126 C17.7830299,10.216126 17.1307511,10.318215 16.5110029,10.4972893 C16.5068323,10.498126 16.5026617,10.4989628 16.4984911,10.5006364 C16.1615082,10.6002151 15.836203,10.7248976 15.5225753,10.8713368 C15.2031088,11.0194496 14.89532,11.1876454 14.6042135,11.3801084 C14.5758535,11.3993547 14.5474936,11.4169274 14.5199677,11.4361737 C14.2739035,11.6043695 14.0436875,11.7918117 13.8218126,11.9901322 C13.6962941,12.1015341 13.5746576,12.21713 13.4572605,12.3368528 L9.10026076,12.3382382 C8.79320752,11.8326311 8.24311567,11.4919431 7.61164929,11.4919431 C6.64708982,11.4919431 5.8648093,12.2753086 5.8648093,13.2387831 C5.8648093,14.2022575 6.64708982,14.985623 7.61164929,14.985623 C8.20839587,14.985623 8.73038336,14.6811165 9.04473206,14.2225334 L9.12521561,14.0937582 L12.2089064,14.0933985 L12.1143769,14.2913195 L12.1143769,14.2913195 C12.0876852,14.3498952 12.0559888,14.4051237 12.0309653,14.4645362 C11.8307774,14.931468 11.6823048,15.4251773 11.5863814,15.9381328 C11.5822109,15.9632367 11.5797085,15.9875038 11.5755379,16.0117708 C11.5577644,16.113081 11.5415559,16.2159611 11.5284281,16.3188906 L5.55243366,16.3184213 C5.35604979,16.3184213 5.17268584,16.259048 5.02078671,16.1564941 C4.969792,16.1219497 4.92205227,16.0830871 4.87865252,16.0399065 C4.79293801,15.9546249 4.72349841,15.8520709 4.67467369,15.7376424 C4.64212388,15.662796 4.61970067,15.5821922 4.60836852,15.49807 L4.59980912,15.3695278 L4.59980912,11.107869 C4.59980912,10.6237066 4.96934361,10.2205243 5.44171961,10.1653971 L5.55243366,10.1589754 L16.8872611,10.1589754 L16.8872611,7.59188919 C16.4890684,7.42456439 16.208055,7.031621 16.208055,6.5728272 C16.208055,5.96290133 16.7060672,5.46848354 17.3190886,5.46848354 Z M7.61164929,12.1697387 C8.20188591,12.1697387 8.68036816,12.6482209 8.68036816,13.2384576 C8.68036816,13.3133221 8.6738582,13.3849317 8.65866829,13.4543713 C8.62937346,13.5932505 8.57512377,13.7234498 8.49700422,13.8362891 C8.45902943,13.8937938 8.41562968,13.9469585 8.36680496,13.9957832 C8.31906524,14.0435229 8.26698553,14.0880077 8.20948086,14.1259825 C8.03913684,14.2409918 7.83298802,14.3082614 7.61164929,14.3082614 C7.38922557,14.3082614 7.18307675,14.2409918 7.01273272,14.1259825 C6.95631305,14.0880077 6.90423335,14.0435229 6.85540862,13.9957832 C6.8065839,13.9469585 6.76318415,13.8937938 6.72520937,13.8362891 C6.64708982,13.7234498 6.59284013,13.5932505 6.5635453,13.4543713 C6.54944038,13.3849317 6.54184542,13.3133221 6.54184542,13.2384576 C6.54184542,13.164678 6.54944038,13.0930684 6.5635453,13.0236288 C6.59284013,12.8836646 6.64708982,12.7545503 6.72520937,12.641711 C6.80115894,12.5267016 6.89989337,12.4290522 7.01273272,12.3520176 C7.12774206,12.2760681 7.25685632,12.2196484 7.39573553,12.1914386 C7.46517513,12.1773336 7.53786971,12.1697387 7.61164929,12.1697387 Z"/>
</svg>
