<svg xmlns="http://www.w3.org/2000/svg" xmlns:xlink="http://www.w3.org/1999/xlink" width="24" height="24" viewBox="0 0 24 24">
  <defs>
    <path id="ic_apply-a" d="M12.2020202,3 C12.6259964,3 12.969697,3.34720775 12.969697,3.7755102 C12.969697,4.17086632 12.6768397,4.49712398 12.2983159,4.54497808 L12.2020202,4.55102041 L7.60606061,4.55102041 C5.96863539,4.55102041 4.6305493,5.84572135 4.5402145,7.47703338 L4.53535354,7.65306122 L4.53535354,17.3469388 C4.53535354,19.0010724 5.81697669,20.3528124 7.43181082,20.444069 L7.60606061,20.4489796 L17.2020202,20.4489796 C18.8394454,20.4489796 20.1775315,19.1542787 20.2678663,17.5229666 L20.2727273,17.3469388 L20.2727273,14.8616628 C20.2727273,14.4333603 20.6164279,14.0861526 21.040404,14.0861526 C21.4317667,14.0861526 21.7547288,14.3819982 21.8020995,14.7643844 L21.8080808,14.8616628 L21.8080808,17.3469388 C21.8080808,19.8472991 19.8558413,21.8870367 17.4071922,21.9954663 L17.2020202,22 L7.60606061,22 C5.13095647,22 3.11182229,20.0278397 3.00448787,17.5542044 L3,17.3469388 L3,7.65306122 C3,5.15270092 4.95223947,3.11296334 7.40088862,3.00453366 L7.60606061,3 L12.2020202,3 Z M15.2094262,5.21047396 C15.2094262,4.73329275 15.5069423,4.60089052 15.8744623,4.91634551 L15.8744623,4.91634551 L21.0477429,9.51043642 C21.2215175,9.64709456 21.3232323,9.85772601 21.3232323,10.0809212 C21.3232323,10.3041164 21.2215175,10.5147479 21.0477429,10.651406 L21.0477429,10.651406 L15.8744623,15.2374995 C15.5078174,15.5511772 15.2094262,15.4205522 15.2094262,14.943371 L15.2094262,14.943371 L15.2111763,11.8483577 L14.3361288,11.8483577 C11.8189172,11.9689956 9.43870583,13.0476291 7.66914217,14.8696168 C7.62888999,14.9158242 7.58163742,14.9584773 7.58163742,14.9584773 C7.41450336,15.1255352 7.30074719,15.0731074 7.32699861,14.8358497 C7.34821827,14.6052365 7.38476185,14.3763433 7.43637954,14.1507348 C8.13291733,11.1117037 10.9916974,8.29837839 14.3343787,8.29837839 L14.3343787,8.29837839 L15.2094262,8.29837839 Z"/>
    <rect id="ic_apply-c" width="50" height="50" x="0" y="0"/>
  </defs>
  <g fill="none" fill-rule="evenodd">
    <mask id="ic_apply-b" fill="#fff">
      <use xlink:href="#ic_apply-a"/>
    </mask>
    <use fill="#000" xlink:href="#ic_apply-a"/>
    <g mask="url(#ic_apply-b)">
      <use fill="#0070FF" transform="translate(-13 -13)" xlink:href="#ic_apply-c"/>
    </g>
  </g>
</svg>
