<svg xmlns="http://www.w3.org/2000/svg" xmlns:xlink="http://www.w3.org/1999/xlink" width="24" height="24" viewBox="0 0 24 24">
  <defs>
    <path id="ic_nav_dashboard-a" d="M19.1113431,1.2 C21.1373067,1.2 22.8058755,2.8685568 22.8058755,4.89452861 L22.8058755,4.89452861 L22.8058755,19.1113316 C22.8058755,21.1372797 21.1372965,22.8058603 19.1113431,22.8058603 L19.1113431,22.8058603 L4.89454765,22.8058603 C2.86859432,22.8058603 1.20001526,21.1372797 1.20001526,19.1113316 L1.20001526,19.1113316 L1.20001526,4.89452861 C1.20001526,2.8685568 2.86858406,1.2 4.89454765,1.2 L4.89454765,1.2 Z M2.79983799,9.97977064 L2.80001526,19.1113316 C2.80001526,20.2536244 3.75225024,21.2058603 4.89454765,21.2058603 L4.89454765,21.2058603 L19.1113431,21.2058603 C20.2536405,21.2058603 21.2058755,20.2536244 21.2058755,19.1113316 L21.2058755,19.1113316 L21.2058232,9.97982704 C21.1386062,9.99354456 21.0696661,10.0004062 21.0000185,9.99999777 L21.0000185,9.99999777 L3.00392207,9.99999777 C2.9348554,10.0002681 2.86649743,9.99339059 2.79983799,9.97977064 Z M12.0019684,11.3378824 C12.5512083,11.3400314 12.9959237,11.7847485 12.9980629,12.3339884 L12.9980629,12.3339884 L12.9980629,17.0058588 C12.9959258,17.5551002 12.5512098,17.9998196 12.0019684,18.0019686 C11.7367498,18.0029989 11.4819819,17.8986351 11.2937122,17.7118291 C11.1054425,17.5250231 10.9990935,17.2710774 10.9980616,17.0058588 L10.9980616,17.0058588 L10.9980616,12.3339884 C10.9990945,12.0687705 11.1054439,11.8148258 11.2937135,11.6280206 C11.4819831,11.4412153 11.7367505,11.3368521 12.0019684,11.3378824 Z M8.0019695,13.33788 C8.26718808,13.3368497 8.52195602,13.4412134 8.71022572,13.6280194 C8.89849543,13.8148255 9.00484435,14.0687711 9.00587631,14.3339897 L9.00587631,14.3339897 L9.00587631,17.0058588 C9.00484435,17.2710774 8.89849543,17.5250231 8.71022572,17.7118291 C8.52195602,17.8986351 8.26718808,18.0029989 8.0019695,18.0019686 C7.45272812,17.9998196 7.00801208,17.5551002 7.00587497,17.0058588 L7.00587497,17.0058588 L7.00587497,14.3339897 C7.00801208,13.7847484 7.45272812,13.3400289 8.0019695,13.33788 Z M16.0039213,13.33788 C16.5531627,13.3400289 16.9978787,13.7847484 17.0000158,14.3339897 L17.0000158,14.3339897 L17.0000158,17.0058588 C16.9978787,17.5551002 16.5531627,17.9998196 16.0039213,18.0019686 C15.7387027,18.0029989 15.4839348,17.8986351 15.2956651,17.7118291 C15.1073954,17.5250231 15.0010464,17.2710774 15.0000145,17.0058588 L15.0000145,17.0058588 L15.0000145,14.3339897 C15.0010464,14.0687711 15.1073954,13.8148255 15.2956651,13.6280194 C15.4839348,13.4412134 15.7387027,13.3368497 16.0039213,13.33788 Z M19.1113431,2.8 L4.89454765,2.8 C3.75223708,2.8 2.80001526,3.75221498 2.80001526,4.89452861 L2.80001526,4.89452861 L2.80038461,8.02011567 C2.86686775,8.0065704 2.93504047,7.99973059 3.00392207,8.00000022 L3.00392207,8.00000022 L21.0000185,8.00000022 C21.0696769,7.9995917 21.1386235,8.00645536 21.2058435,8.02017491 L21.2058755,4.89452861 C21.2058755,3.75221498 20.2536537,2.8 19.1113431,2.8 L19.1113431,2.8 Z M18.0039226,4.0078174 C18.5531596,4.00995863 18.9978738,4.45467118 19.0000248,5.00390814 C19.0010561,5.26912607 18.8966939,5.52389384 18.7098894,5.71216415 C18.5230849,5.90043445 18.2691406,6.00678478 18.0039226,6.00781873 L18.0039226,6.00781873 L15.332046,6.00781873 C15.066828,6.00678478 14.8128837,5.90043445 14.6260792,5.71216415 C14.4392747,5.52389384 14.3349125,5.26912607 14.3359438,5.00390814 C14.3380948,4.45467118 14.782809,4.00995863 15.332046,4.0078174 L15.332046,4.0078174 Z"/>
    <rect id="ic_nav_dashboard-c" width="50" height="50" x="0" y="0"/>
  </defs>
  <g fill="none" fill-rule="evenodd">
    <mask id="ic_nav_dashboard-b" fill="#fff">
      <use xlink:href="#ic_nav_dashboard-a"/>
    </mask>
    <use fill="#000" fill-rule="nonzero" xlink:href="#ic_nav_dashboard-a"/>
    <g mask="url(#ic_nav_dashboard-b)">
      <use fill="#000" transform="translate(-13 -13)" xlink:href="#ic_nav_dashboard-c"/>
    </g>
  </g>
</svg>
