<svg xmlns="http://www.w3.org/2000/svg" xmlns:xlink="http://www.w3.org/1999/xlink" width="24" height="24" viewBox="0 0 24 24">
  <defs>
    <path id="ic_delete-a" d="M6.88888889,18.2222222 C6.88888889,19.2 7.68888889,20 8.66666667,20 L15.7777778,20 C16.7555556,20 17.5555556,19.2 17.5555556,18.2222222 L17.5555556,9.33333333 C17.5555556,8.35555556 16.7555556,7.55555556 15.7777778,7.55555556 L8.66666667,7.55555556 C7.68888889,7.55555556 6.88888889,8.35555556 6.88888889,9.33333333 L6.88888889,18.2222222 Z M9.55555556,9.33333333 L14.8888889,9.33333333 C15.3777778,9.33333333 15.7777778,9.73333333 15.7777778,10.2222222 L15.7777778,17.3333333 C15.7777778,17.8222222 15.3777778,18.2222222 14.8888889,18.2222222 L9.55555556,18.2222222 C9.06666667,18.2222222 8.66666667,17.8222222 8.66666667,17.3333333 L8.66666667,10.2222222 C8.66666667,9.73333333 9.06666667,9.33333333 9.55555556,9.33333333 Z M15.3333333,4.88888889 L14.7022222,4.25777778 C14.5422222,4.09777778 14.3111111,4 14.08,4 L10.3644444,4 C10.1333333,4 9.90222222,4.09777778 9.74222222,4.25777778 L9.11111111,4.88888889 L6.88888889,4.88888889 C6.4,4.88888889 6,5.28888889 6,5.77777778 C6,6.26666667 6.4,6.66666667 6.88888889,6.66666667 L17.5555556,6.66666667 C18.0444444,6.66666667 18.4444444,6.26666667 18.4444444,5.77777778 C18.4444444,5.28888889 18.0444444,4.88888889 17.5555556,4.88888889 L15.3333333,4.88888889 Z"/>
    <rect id="ic_delete-c" width="50" height="50" x="0" y="0"/>
  </defs>
  <g fill="none" fill-rule="evenodd">
    <mask id="ic_delete-b" fill="#fff">
      <use xlink:href="#ic_delete-a"/>
    </mask>
    <use fill="#000" fill-rule="nonzero" xlink:href="#ic_delete-a"/>
    <g mask="url(#ic_delete-b)">
      <use fill="#0070FF" transform="translate(-13 -13)" xlink:href="#ic_delete-c"/>
    </g>
  </g>
</svg>
