<svg xmlns="http://www.w3.org/2000/svg" width="24" height="24" viewBox="0 0 24 24">
  <path fill-rule="evenodd" d="M18.7316651,12.8667626 C18.8240862,12.8694066 19.6123836,12.9143537 19.7048047,13.6784545 L19.713639,13.8303163 L19.713639,17.2084978 C19.713639,18.1180794 18.8298625,18.1686117 18.7316651,18.1714191 L18.7228308,18.1715842 L17.9768053,20.5873119 C17.9158907,20.9241181 17.6575778,21.1849294 17.3303418,21.2661537 L17.2188867,21.286435 L17.2188867,21.2931817 L15.7564606,21.2931817 C15.4154946,21.2470725 15.1290013,21.0153309 15.0257715,20.6966306 L14.9983258,20.5873119 L14.2525166,18.1715842 C14.2525166,18.1715842 13.3685472,18.1715842 13.2703284,17.3602599 L13.2614921,17.2084978 L13.2614921,13.8303163 C13.2614921,12.9201373 14.1454615,12.8695718 14.2436803,12.8667626 L18.7316651,12.8667626 Z M10.0253941,2 C14.0483477,2 17.7060874,4.73106836 18.8632235,8.38863272 L18.9382192,8.63942661 L17.8261611,8.63942661 C17.8261611,8.63942661 17.4963664,8.06040811 16.0546187,8.01005867 L15.851051,8.00657374 L10.6245931,8.00657374 L10.6245931,10.2699168 C10.1885846,10.2699168 9.64811845,11.1939372 9.64811845,11.610518 C9.52336997,11.6009095 9.08047626,11.5998419 8.69880703,11.6073152 L8.55929192,11.610518 L5.80548499,11.610518 C5.83368259,12.27342 5.90865707,12.9213364 6.02963342,13.5477181 L6.12897892,14.0133643 L8.10281085,14.0133643 L8.10281085,15.214679 L6.48036771,15.214679 C6.68168646,15.7788048 6.92257699,16.2971848 7.20109316,16.7628813 C7.41888933,17.1265928 7.65813645,17.4507592 7.91053091,17.7280541 L8.10216214,17.9271224 L8.61702781,18.3299455 C8.80661557,18.4639308 8.9988793,18.5696231 9.19281551,18.64812 L9.38727204,18.7175923 L9.44890023,18.7362375 C9.54352159,19.0409231 9.93393274,19.8797072 9.98625478,20.019938 C5.02313137,20.019938 1,15.9860701 1,11.009969 C1,6.03386793 5.02313137,2 10.0253941,2 Z M12.7733752,13.0470917 C12.5608931,13.2821181 12.4141376,13.5896218 12.3807688,13.9659303 L12.3735488,14.1314073 L12.3735488,16.9917823 C12.3735488,17.6737144 12.7295222,18.1546239 13.199958,18.41229 L13.3198118,18.4720427 L13.5094537,18.5928502 L13.3978742,19.2097484 C13.352512,19.4599372 13.1622642,19.6544868 12.92038,19.7180272 L12.827435,19.7355665 L12.827435,19.7408374 L11.7272097,19.7408374 C11.4740656,19.7065418 11.2607309,19.5359803 11.1806067,19.3008211 L11.1569868,19.2097484 L10.5958459,17.0381656 C10.5958459,17.0381656 9.94653997,17.0381656 9.85996585,16.4490114 L9.8504692,16.3135317 L9.8504692,13.7721474 C9.8504692,13.0954288 10.4997751,13.0503142 10.5863493,13.0473066 L12.7733752,13.0470917 Z M22.2641199,13.0473276 C22.3449225,13.0501339 22.9159269,13.0896094 22.9917017,13.6448976 L23,13.7719576 L23,16.3135527 C23,16.9898778 22.3506941,17.0349661 22.2641199,17.037972 L22.2546233,17.0381867 L21.6934824,19.2097694 C21.6481202,19.4599583 21.4578724,19.6545079 21.21614,19.7180483 L21.1232595,19.7355876 L21.1232595,19.7408585 L20.0230342,19.7408585 C19.7696979,19.7065629 19.5563418,19.5360014 19.4762152,19.3008422 L19.452595,19.2097694 L19.3937779,18.8844537 L19.6361821,18.471853 C20.1240179,18.251743 20.5177013,17.8063584 20.5753814,17.1580855 L20.5826614,16.9918034 L20.5826614,14.1314283 C20.5826614,13.7355362 20.4623006,13.4079243 20.2696736,13.1522651 L20.182835,13.0471128 L22.2641199,13.0473276 Z M5.21688174,15.214679 L3.42144719,15.214679 L4.47928964,16.5315507 C5.10941083,17.1633195 5.83056875,17.6751954 6.62676169,18.0569884 C6.04767296,17.284947 5.5658919,16.3175645 5.21688174,15.214679 Z M4.60665456,11.610518 L2.22088684,11.610518 C2.27426705,12.3216993 2.42328679,13.0150407 2.66590345,13.6820773 L2.79500207,14.0133643 L4.9016049,14.0133643 C4.74115537,13.2538975 4.63973916,12.4480345 4.60665456,11.610518 Z M12.2786198,10.5060237 C12.8946854,10.5060237 13.3944144,10.9932594 13.3944144,11.5939234 C13.3944144,11.9803808 13.1892033,12.3170815 12.8801974,12.5104156 C12.8564111,12.522644 12.8308949,12.5336073 12.8090547,12.5475223 C12.6512,12.6305906 12.471289,12.6841422 12.2786198,12.6841422 C11.660608,12.6841422 11.1604466,12.1964849 11.1604466,11.5939234 C11.1604466,10.9932594 11.660608,10.5060237 12.2786198,10.5060237 Z M20.574228,10.5060026 C21.1902937,10.5060026 21.6900226,10.9932383 21.6900226,11.5939023 C21.6900226,11.9805705 21.4848115,12.3170604 21.1758056,12.5103945 C21.1522356,12.5226229 21.1265031,12.5335862 21.1046629,12.5475012 C20.9470245,12.6305695 20.7668972,12.6841212 20.574228,12.6841212 C19.9562162,12.6841212 19.4560548,12.1964638 19.4560548,11.5939023 C19.4560548,10.9932383 19.9562162,10.5060026 20.574228,10.5060026 Z M16.4891009,9.48885855 C17.3079989,9.48885855 17.9722859,10.1365384 17.9722859,10.934964 C17.9722859,11.4487647 17.6996082,11.8961529 17.2889699,12.1531586 C17.2573989,12.1693928 17.2232331,12.1839403 17.1942571,12.2024936 C16.984505,12.3129703 16.7451281,12.3840211 16.4891009,12.3840211 C15.6678242,12.3840211 15.0028885,11.7357088 15.0028885,10.934964 C15.0028885,10.1365384 15.6678242,9.48885855 16.4891009,9.48885855 Z M4.9016049,8.00657374 L2.79500207,8.00657374 C2.52124317,8.66442109 2.34074076,9.35030262 2.25540127,10.0552073 L2.2206706,10.4092032 L4.60665456,10.4092032 C4.63973916,9.57190355 4.74115537,8.76582374 4.9016049,8.00657374 Z M9.38727204,8.00657374 L6.16811823,8.00657374 C6.14908917,8.02717019 6.10497636,8.15313371 6.08637979,8.21102056 C5.96424786,8.7769675 5.87823653,9.36039758 5.83233153,9.95820267 L5.80548499,10.4092032 L9.38727204,10.4092032 L9.38727204,8.00657374 Z M6.60297537,3.99633752 C5.83208242,4.37466169 5.13146723,4.87374607 4.5182127,5.48838735 C4.19342134,5.81424479 3.86538639,6.16156589 3.60525056,6.53381953 L3.51188926,6.66856364 L3.51188926,6.66856364 L3.42144719,6.80525899 L5.21688174,6.80525899 C5.5609184,5.7177667 6.03469861,4.76317568 6.60297537,3.99633752 Z M9.38727204,3.30212893 C9.12735245,3.38299707 8.8698115,3.51112864 8.61702781,3.6899925 C8.11946128,4.0416497 7.64330243,4.5834446 7.24023246,5.25705675 C7.01724654,5.62944048 6.81847942,6.03568042 6.64492752,6.47222445 L6.51950702,6.80525899 L9.38727204,6.80525899 L9.38727204,3.30212893 Z M10.6245931,3.30212893 L10.6245931,6.80525899 L13.4921418,6.80525899 C13.2910393,6.2409164 13.0501488,5.72253641 12.7716326,5.25705675 C12.3683464,4.5834446 11.8924038,4.0416497 11.3946211,3.6899925 C11.1418374,3.51112864 10.8845126,3.38299707 10.6245931,3.30212893 Z M13.4088897,3.99633752 C13.9140246,4.67797144 14.3444956,5.5079533 14.6755475,6.44775908 L14.7949834,6.80525899 L16.5904179,6.80525899 C16.5316008,6.713117 16.4691077,6.62335986 16.4066145,6.53381953 C16.1464787,6.16156589 15.8184438,5.81424479 15.4936524,5.48838735 C14.8803979,4.87374607 14.1797827,4.37466169 13.4088897,3.99633752 Z"/>
</svg>
