<svg xmlns="http://www.w3.org/2000/svg" xmlns:xlink="http://www.w3.org/1999/xlink" width="24" height="24" viewBox="0 0 24 24">
  <defs>
    <path id="ic_nav_help-a" d="M12,3 C7.02943725,3 3,7.02943725 3,12 C3,16.9705627 7.02943725,21 12,21 C16.9705627,21 21,16.9705627 21,12 C21,7.02943725 16.9705627,3 12,3 L12,3 Z M13.956375,6.0735 L14.10825,5.5245 C14.1764813,5.27272588 14.3520077,5.06371054 14.5881966,4.95298342 C14.8243856,4.8422563 15.0973241,4.84102805 15.3345,4.949625 C16.9699901,5.72472248 18.287159,7.04149394 19.06275,8.67675 C19.1720452,8.91831316 19.1676308,9.19608719 19.0507151,9.43405545 C18.9337993,9.67202371 18.716625,9.84526703 18.458625,9.906375 L17.896125,10.04025 C17.5187268,10.1361636 17.125261,9.95765535 16.948875,9.6105 C16.4041488,8.49321481 15.5001023,7.59114915 14.381625,7.048875 C14.0220898,6.8697506 13.8414221,6.45970104 13.951875,6.0735 L13.951875,6.0735 L13.956375,6.0735 Z M4.940625,8.661 C5.71556881,7.02540164 7.03238559,5.70818739 8.66775,4.93275 C8.909274,4.82302372 9.18724414,4.82722688 9.42534017,4.94420544 C9.66343619,5.061184 9.83663219,5.27864252 9.897375,5.536875 L10.032375,6.099375 C10.1278451,6.47673376 9.94945855,6.86993131 9.602625,7.046625 C8.4850589,7.59041645 7.58282911,8.49423118 7.041,9.61275 C6.86145568,9.97245767 6.45101783,10.1530882 6.0645,10.0425 L5.5155,9.89175 C5.26393016,9.8232585 5.05519541,9.64762575 4.94470067,9.41147033 C4.83420593,9.17531491 4.83312691,8.90252214 4.94175,8.6655 L4.94175,8.6655 L4.940625,8.661 Z M10.0335,17.931 L9.88275,18.48 C9.81451866,18.7317741 9.63899233,18.9407895 9.40280336,19.0515166 C9.16661439,19.1622437 8.89367594,19.1634719 8.6565,19.054875 C7.02122636,18.2794705 5.70414801,16.9627896 4.92825,15.32775 C4.81852372,15.086226 4.82272688,14.8082559 4.93970544,14.5701598 C5.056684,14.3320638 5.27414252,14.1588678 5.532375,14.098125 L6.094875,13.963125 C6.47223376,13.8676549 6.86543131,14.0460414 7.042125,14.392875 C7.58591372,15.5108292 8.49023069,16.4131648 9.609375,16.9545 C9.96899455,17.1340889 10.1492419,17.5447312 10.038,17.931 L10.038,17.931 L10.0335,17.931 Z M7.701375,12.009 C7.701375,9.62747912 9.63197912,7.696875 12.0135,7.696875 C14.3950209,7.696875 16.325625,9.62747912 16.325625,12.009 C16.325625,14.3905209 14.3950209,16.321125 12.0135,16.321125 C9.63197912,16.321125 7.701375,14.3905209 7.701375,12.009 L7.701375,12.009 L7.701375,12.009 Z M19.04925,15.33675 C18.2745123,16.9721075 16.9581395,18.2892752 15.32325,19.065 C15.0817658,19.1751596 14.8035983,19.1711688 14.5653736,19.0541271 C14.327149,18.9370853 14.1540005,18.7193408 14.093625,18.460875 L13.95975,17.898375 C13.8633911,17.5209374 14.0420217,17.1272018 14.3895,16.951125 C15.5069393,16.4066146 16.409067,15.502506 16.951125,14.383875 C17.1307139,14.0242555 17.5413562,13.8440081 17.927625,13.95525 L18.4755,14.106 C18.7272027,14.1739521 18.9362324,14.3492564 19.0469826,14.5852778 C19.1577328,14.8212992 19.1589736,15.0941059 19.050375,15.331125 L19.050375,15.331125 L19.04925,15.33675 Z"/>
    <rect id="ic_nav_help-c" width="50" height="50" x="0" y="0"/>
  </defs>
  <g fill="none" fill-rule="evenodd">
    <mask id="ic_nav_help-b" fill="#fff">
      <use xlink:href="#ic_nav_help-a"/>
    </mask>
    <use fill="#5E6470" fill-opacity=".6" xlink:href="#ic_nav_help-a"/>
    <g mask="url(#ic_nav_help-b)">
      <use fill="#000" transform="translate(-13 -13)" xlink:href="#ic_nav_help-c"/>
    </g>
  </g>
</svg>
