<svg xmlns="http://www.w3.org/2000/svg" xmlns:xlink="http://www.w3.org/1999/xlink" width="24" height="24" viewBox="0 0 24 24">
  <defs>
    <path id="ic_nav_home-a" d="M5,22.8 C3.4536027,22.8 2.2,21.5463973 2.2,20 L2.2,20 L2.2,9 C2.2,8.75312765 2.31397828,8.52008319 2.50884751,8.36851823 L2.50884751,8.36851823 L11.5088475,1.36851823 C11.7977359,1.14382726 12.2022641,1.14382726 12.4911525,1.36851823 L12.4911525,1.36851823 L21.4911525,8.36851823 C21.6860217,8.52008319 21.8,8.75312765 21.8,9 L21.8,9 L21.8,20 C21.8,21.5463973 20.5463973,22.8 19,22.8 L19,22.8 Z M12,3.013 L3.8,9.391 L3.8,20 C3.8,20.6213203 4.27219968,21.1323525 4.87730697,21.1938045 L4.87730697,21.1938045 L5,21.2 L8.199,21.2 L8.2,14 C8.2,13.592159 8.50518815,13.2555984 8.8996497,13.2062331 L9,13.2 L15,13.2 C15.407841,13.2 15.7444016,13.5051881 15.7937669,13.8996497 L15.8,14 L15.799,21.2 L19,21.2 C19.6213203,21.2 20.1323525,20.7278003 20.1938045,20.122693 L20.2,20 L20.2,9.391 L12,3.013 Z M14.2,14.8 L9.8,14.8 L9.799,21.2 L14.199,21.2 L14.2,14.8 Z"/>
    <rect id="ic_nav_home-c" width="50" height="50" x="0" y="0"/>
  </defs>
  <g fill="none" fill-rule="evenodd">
    <mask id="ic_nav_home-b" fill="#fff">
      <use xlink:href="#ic_nav_home-a"/>
    </mask>
    <use fill="#000" fill-rule="nonzero" xlink:href="#ic_nav_home-a"/>
    <g mask="url(#ic_nav_home-b)">
      <use fill="#000" transform="translate(-13 -13)" xlink:href="#ic_nav_home-c"/>
    </g>
  </g>
</svg>
