<svg xmlns="http://www.w3.org/2000/svg" xmlns:xlink="http://www.w3.org/1999/xlink" width="310" height="310" viewBox="0 0 310 310">
  <defs>
    <polygon id="img_prod_xt8_back_outline-b" points="9.195 23.126 11.643 23.133 11.635 24.75 18.221 24.775 18.225 23.17 20.671 23.176 20.686 19.653 25.107 19.676 25.092 6.016 4.771 5.911 4.797 19.58 9.21 19.603"/>
    <filter id="img_prod_xt8_back_outline-a" width="100%" height="100%" x="0%" y="0%" filterUnits="objectBoundingBox">
      <feOffset in="SourceAlpha" result="shadowOffsetOuter1"/>
      <feColorMatrix in="shadowOffsetOuter1" values="0 0 0 0 0   0 0 0 0 0.444344811   0 0 0 0 0.962437726  0 0 0 1 0"/>
    </filter>
    <filter id="img_prod_xt8_back_outline-c" width="100%" height="100%" x="0%" y="0%" filterUnits="objectBoundingBox">
      <feOffset in="SourceAlpha" result="shadowOffsetInner1"/>
      <feComposite in="shadowOffsetInner1" in2="SourceAlpha" k2="-1" k3="1" operator="arithmetic" result="shadowInnerInner1"/>
      <feColorMatrix in="shadowInnerInner1" result="shadowMatrixInner1" values="0 0 0 0 0.158326982   0 0 0 0 0.653353079   0 0 0 0 1  0 0 0 1 0"/>
      <feOffset in="SourceAlpha" result="shadowOffsetInner2"/>
      <feComposite in="shadowOffsetInner2" in2="SourceAlpha" k2="-1" k3="1" operator="arithmetic" result="shadowInnerInner2"/>
      <feColorMatrix in="shadowInnerInner2" result="shadowMatrixInner2" values="0 0 0 0 0.4923256   0 0 0 0 0.790911953   0 0 0 0 1  0 0 0 1 0"/>
      <feMerge>
        <feMergeNode in="shadowMatrixInner1"/>
        <feMergeNode in="shadowMatrixInner2"/>
      </feMerge>
    </filter>
    <polygon id="img_prod_xt8_back_outline-e" points="8.195 23.126 10.643 23.133 10.635 24.75 17.221 24.775 17.225 23.17 19.671 23.176 19.686 19.653 24.107 19.676 24.092 6.016 3.771 5.911 3.797 19.58 8.21 19.603"/>
    <filter id="img_prod_xt8_back_outline-d" width="100%" height="100%" x="0%" y="0%" filterUnits="objectBoundingBox">
      <feOffset in="SourceAlpha" result="shadowOffsetOuter1"/>
      <feColorMatrix in="shadowOffsetOuter1" values="0 0 0 0 0   0 0 0 0 0.444344811   0 0 0 0 0.962437726  0 0 0 1 0"/>
    </filter>
    <filter id="img_prod_xt8_back_outline-f" width="100%" height="100%" x="0%" y="0%" filterUnits="objectBoundingBox">
      <feOffset in="SourceAlpha" result="shadowOffsetInner1"/>
      <feComposite in="shadowOffsetInner1" in2="SourceAlpha" k2="-1" k3="1" operator="arithmetic" result="shadowInnerInner1"/>
      <feColorMatrix in="shadowInnerInner1" result="shadowMatrixInner1" values="0 0 0 0 0.158326982   0 0 0 0 0.653353079   0 0 0 0 1  0 0 0 1 0"/>
      <feOffset in="SourceAlpha" result="shadowOffsetInner2"/>
      <feComposite in="shadowOffsetInner2" in2="SourceAlpha" k2="-1" k3="1" operator="arithmetic" result="shadowInnerInner2"/>
      <feColorMatrix in="shadowInnerInner2" result="shadowMatrixInner2" values="0 0 0 0 0.4923256   0 0 0 0 0.790911953   0 0 0 0 1  0 0 0 1 0"/>
      <feMerge>
        <feMergeNode in="shadowMatrixInner1"/>
        <feMergeNode in="shadowMatrixInner2"/>
      </feMerge>
    </filter>
    <polygon id="img_prod_xt8_back_outline-h" points="8.195 23.126 10.643 23.133 10.635 24.75 17.221 24.775 17.225 23.17 19.671 23.176 19.686 19.653 24.107 19.676 24.092 6.016 3.771 5.911 3.797 19.58 8.21 19.603"/>
    <filter id="img_prod_xt8_back_outline-g" width="100%" height="100%" x="0%" y="0%" filterUnits="objectBoundingBox">
      <feOffset in="SourceAlpha" result="shadowOffsetOuter1"/>
      <feColorMatrix in="shadowOffsetOuter1" values="0 0 0 0 0   0 0 0 0 0.444344811   0 0 0 0 0.962437726  0 0 0 1 0"/>
    </filter>
    <filter id="img_prod_xt8_back_outline-i" width="100%" height="100%" x="0%" y="0%" filterUnits="objectBoundingBox">
      <feOffset in="SourceAlpha" result="shadowOffsetInner1"/>
      <feComposite in="shadowOffsetInner1" in2="SourceAlpha" k2="-1" k3="1" operator="arithmetic" result="shadowInnerInner1"/>
      <feColorMatrix in="shadowInnerInner1" result="shadowMatrixInner1" values="0 0 0 0 0.158326982   0 0 0 0 0.653353079   0 0 0 0 1  0 0 0 1 0"/>
      <feOffset in="SourceAlpha" result="shadowOffsetInner2"/>
      <feComposite in="shadowOffsetInner2" in2="SourceAlpha" k2="-1" k3="1" operator="arithmetic" result="shadowInnerInner2"/>
      <feColorMatrix in="shadowInnerInner2" result="shadowMatrixInner2" values="0 0 0 0 0.4923256   0 0 0 0 0.790911953   0 0 0 0 1  0 0 0 1 0"/>
      <feMerge>
        <feMergeNode in="shadowMatrixInner1"/>
        <feMergeNode in="shadowMatrixInner2"/>
      </feMerge>
    </filter>
    <polygon id="img_prod_xt8_back_outline-k" points="8.195 23.126 10.643 23.133 10.635 24.75 17.221 24.775 17.225 23.17 19.671 23.176 19.686 19.653 24.107 19.676 24.092 6.016 3.771 5.911 3.797 19.58 8.21 19.603"/>
    <filter id="img_prod_xt8_back_outline-j" width="100%" height="100%" x="0%" y="0%" filterUnits="objectBoundingBox">
      <feOffset in="SourceAlpha" result="shadowOffsetOuter1"/>
      <feColorMatrix in="shadowOffsetOuter1" values="0 0 0 0 0   0 0 0 0 0.444344811   0 0 0 0 0.962437726  0 0 0 1 0"/>
    </filter>
    <filter id="img_prod_xt8_back_outline-l" width="100%" height="100%" x="0%" y="0%" filterUnits="objectBoundingBox">
      <feOffset in="SourceAlpha" result="shadowOffsetInner1"/>
      <feComposite in="shadowOffsetInner1" in2="SourceAlpha" k2="-1" k3="1" operator="arithmetic" result="shadowInnerInner1"/>
      <feColorMatrix in="shadowInnerInner1" result="shadowMatrixInner1" values="0 0 0 0 0.158326982   0 0 0 0 0.653353079   0 0 0 0 1  0 0 0 1 0"/>
      <feOffset in="SourceAlpha" result="shadowOffsetInner2"/>
      <feComposite in="shadowOffsetInner2" in2="SourceAlpha" k2="-1" k3="1" operator="arithmetic" result="shadowInnerInner2"/>
      <feColorMatrix in="shadowInnerInner2" result="shadowMatrixInner2" values="0 0 0 0 0.4923256   0 0 0 0 0.790911953   0 0 0 0 1  0 0 0 1 0"/>
      <feMerge>
        <feMergeNode in="shadowMatrixInner1"/>
        <feMergeNode in="shadowMatrixInner2"/>
      </feMerge>
    </filter>
  </defs>
  <g fill="none" fill-rule="evenodd" transform="translate(9 17)">
    <path fill="#A4BAC3" fill-rule="nonzero" d="M292.380615,0.618055556 L292,264 L286,264 L286,272.9375 C286,274.035906 285.145476,274.933767 284.067976,274.996499 L283.947368,275 L260,275 L260,276 L30,276 L30,273.999056 L8.05263158,274 L7.93202388,273.996499 C6.85452419,273.933767 6,273.035906 6,271.9375 L6,271.9375 L6,263.999056 L0,264 L0.380614657,0.618055556 L292.380615,0.618055556 Z M31.381166,261.821738 L31.3813814,274.598888 L258.618619,274.598888 L258.61938,263.253656 C256.716497,265.542141 253.842047,267 250.625749,267 L250.625749,267 L40.3742515,267 C36.5295104,267 33.1732601,264.916772 31.381166,261.821738 Z M260.817756,258.598673 L260.768367,258.848267 C260.598686,259.634679 260.339156,260.387851 260.001004,261.096601 L260,273.625 L283.947368,273.625 C284.298256,273.625 284.587452,273.359597 284.626976,273.017677 L284.631579,272.9375 L284.631579,264 L269.910165,264 C265.987852,264 262.574904,261.817045 260.817756,258.598673 Z M30.000831,259.40792 C28.1420093,262.177514 24.9833957,264 21.3995272,264 L21.3995272,264 L7.368,263.999056 L7.36842105,271.9375 L7.37302424,272.017677 C7.41254773,272.359597 7.7017439,272.625 8.05263158,272.625 L8.05263158,272.625 L30,272.624056 Z M250.58156,206.649306 L40.7281324,206.649306 C35.7719317,206.649306 31.7541371,210.67097 31.7541371,215.631944 L31.7541371,215.631944 L31.7541371,253.635417 C31.7541371,254.590178 31.6251652,255.514787 31.3837087,256.39274 L31.3832335,256.666667 C31.3832335,261.612683 35.4086494,265.622222 40.3742515,265.622222 L40.3742515,265.622222 L250.625749,265.622222 C255.591351,265.622222 259.616766,261.612683 259.616766,256.666667 L259.616766,256.666667 L259.616185,254.763549 C259.576115,254.393012 259.555556,254.016618 259.555556,253.635417 L259.555556,253.635417 L259.555556,215.631944 C259.555556,210.67097 255.537761,206.649306 250.58156,206.649306 L250.58156,206.649306 Z M291,2 L1.76122931,2 L1.747,11.6190556 L1.80412016,11.6253006 C1.94345846,11.6537951 2.05256325,11.7634001 2.07807833,11.9016443 L2.0837425,11.9637906 L1.70312784,257.654265 C1.70312784,257.833107 1.56504721,257.980233 1.38800856,257.998165 L1.38061466,262.618056 L21.3995272,262.618056 C25.4638405,262.618056 28.8970985,259.913584 30.0011383,256.204439 L30,215.333333 C30,209.626391 34.6447106,205 40.3742515,205 L40.3742515,205 L250.625749,205 C256.355289,205 261,209.626391 261,215.333333 L261,215.333333 L261.000085,254.713053 C261.531962,259.165947 265.31831,262.618056 269.910165,262.618056 L269.910165,262.618056 L290.619385,262.618056 L290.626047,257.99931 C290.442316,257.987955 290.296872,257.837813 290.296872,257.654265 L290.296872,257.654265 L290.677487,11.9637906 L290.683151,11.9016443 C290.712919,11.7403594 290.856461,11.6180556 291.029051,11.6180556 L290.985,11.6220556 L291,2 Z M9.88061466,10.6180556 C10.671386,10.6180556 11.3192385,11.182101 11.3765004,11.8975366 L11.3806147,12.000727 L11,257.617329 C11,258.380957 10.3284271,259 9.5,259 C8.70922865,259 8.06137616,258.435955 8.0041143,257.720519 L8,257.617329 L8.38061466,12.000727 C8.38061466,11.2370987 9.05218753,10.6180556 9.88061466,10.6180556 Z M6.38061466,11.6180556 C6.90041207,11.6180556 7.32758044,12.0289909 7.37603694,12.5544322 L7.38061466,12.6542219 L7,257.963834 C7,258.536093 6.55228475,259 6,259 C5.48020259,259 5.05303421,258.589065 5.00457772,258.063623 L5,257.963834 L5.38061466,12.6542219 C5.38061466,12.081963 5.82832991,11.6180556 6.38061466,11.6180556 Z M3.88061466,11.6180556 C4.13703258,11.6180556 4.34836824,11.8852066 4.37725079,12.2293793 L4.38061466,12.3100845 L4,258.307971 C4,258.690168 3.77614237,259 3.5,259 C3.24358208,259 3.03224642,258.732849 3.00336387,258.388676 L3,258.307971 L3.38061466,12.3100845 C3.38061466,11.9278875 3.60447228,11.6180556 3.88061466,11.6180556 Z M282.880615,10.6180556 C283.709042,10.6180556 284.380615,11.2370987 284.380615,12.000727 L284.380615,12.000727 L284,257.617329 L283.995886,257.720519 C283.938624,258.435955 283.290771,259 282.5,259 C281.671573,259 281,258.380957 281,257.617329 L281,257.617329 L281.380615,12.000727 L281.384729,11.8975366 C281.441991,11.182101 282.089843,10.6180556 282.880615,10.6180556 Z M286.380615,11.6180556 C286.932899,11.6180556 287.380615,12.081963 287.380615,12.6542219 L287.380615,12.6542219 L287,257.963834 L286.995422,258.063623 C286.946966,258.589065 286.519797,259 286,259 C285.447715,259 285,258.536093 285,257.963834 L285,257.963834 L285.380615,12.6542219 L285.385192,12.5544322 C285.433649,12.0289909 285.860817,11.6180556 286.380615,11.6180556 Z M289.880615,11.6180556 C290.156757,11.6180556 290.380615,11.9278875 290.380615,12.3100845 L290.380615,12.3100845 L290,258.307971 L289.996636,258.388676 C289.967754,258.732849 289.756418,259 289.5,259 C289.223858,259 289,258.690168 289,258.307971 L289,258.307971 L289.380615,12.3100845 L289.383979,12.2293793 C289.412861,11.8852066 289.624197,11.6180556 289.880615,11.6180556 Z" opacity=".4"/>
    <g transform="translate(46 226)">
      <ellipse cx="6.31" cy="6.305" stroke="#FFF" stroke-width=".5" rx="6.31" ry="6.305"/>
      <ellipse cx="6.505" cy="6.503" fill="#FFF" rx="3.505" ry="3.503"/>
    </g>
    <text fill="#FFF" font-family="Xolonium" font-size="5" letter-spacing="-.017">
      <tspan x="68.642" y="257">Power</tspan>
    </text>
    <g transform="translate(70.316 217.361)">
      <g transform="translate(122)">
        <rect width="31" height="8.622" y="34" fill="#29B5FF"/>
        <text fill="#FFF" font-family="Xolonium" font-size="5" letter-spacing="-.017">
          <tspan x="2" y="40">2.5G WAN</tspan>
        </text>
        <use fill="#000" filter="url(#img_prod_xt8_back_outline-a)" xlink:href="#img_prod_xt8_back_outline-b"/>
        <use fill="#29B5FF" xlink:href="#img_prod_xt8_back_outline-b"/>
        <use fill="#000" filter="url(#img_prod_xt8_back_outline-c)" xlink:href="#img_prod_xt8_back_outline-b"/>
        <g transform="matrix(1 0 0 -1 1 26.248)">
          <path stroke="#29B5FF" stroke-width="1.368" d="M28.6837607,-0.435897436 L-0.683760684,-0.435897436 L-0.683760684,25.9316239 L28.6837607,25.9316239 L28.6837607,-0.435897436 Z"/>
          <path fill="#FFF" d="M8.29509143,18.6836977 L10.7237729,18.6905299 L10.7153032,20.307494 L17.26564,20.3325455 L17.2698749,18.7269685 L19.6964389,18.7338008 L19.7112608,15.210641 L24.0985563,15.2334151 L24.0837344,2.57290871 L3.90567854,2.46814765 L3.93108758,15.1377637 L8.30991338,15.1605379 L8.29509143,18.6836977 Z M2,0.411642619 L26,0.52551333 L26,17.2967524 L21.6169394,17.2762557 L21.6,20.797138 L19.1713186,20.7903058 L19.1713186,22.3936054 L8.80115496,22.3548894 L8.80327238,20.7356479 L6.37670837,20.7288156 L6.39364774,17.2102107 L2.00846968,17.1851591 L2,0.411642619 Z" transform="matrix(1 0 0 -1 0 22.805)"/>
          <path fill="#FFF" d="M14.8384538,13.7393676 L17.3463849,13.7461614 L17.3697368,19.2478632 L14.8618057,19.2427679 L14.8384538,13.7393676 Z M19.0090709,13.7393676 L21.517002,13.7461614 L21.5403539,19.2478632 L19.0324228,19.2427679 L19.0090709,13.7393676 Z M10.6706171,13.7393676 L13.1813286,13.7461614 L13.1963393,19.2478632 L10.6884082,19.2427679 L10.6706171,13.7393676 Z M6.5,13.7393676 L9.00793108,13.7461614 L9.02572219,19.2478632 L6.52057152,19.2427679 L6.5,13.7393676 Z"/>
        </g>
      </g>
      <g transform="translate(83)">
        <use fill="#000" filter="url(#img_prod_xt8_back_outline-d)" xlink:href="#img_prod_xt8_back_outline-e"/>
        <use fill="#B6AA18" xlink:href="#img_prod_xt8_back_outline-e"/>
        <use fill="#000" filter="url(#img_prod_xt8_back_outline-f)" xlink:href="#img_prod_xt8_back_outline-e"/>
        <g transform="matrix(1 0 0 -1 0 26.248)">
          <path stroke="#F8E71C" stroke-width="1.368" d="M28.6837607,-0.435897436 L-0.683760684,-0.435897436 L-0.683760684,25.9316239 L28.6837607,25.9316239 L28.6837607,-0.435897436 Z"/>
          <path fill="#FFF" d="M8.29509143,18.6836977 L10.7237729,18.6905299 L10.7153032,20.307494 L17.26564,20.3325455 L17.2698749,18.7269685 L19.6964389,18.7338008 L19.7112608,15.210641 L24.0985563,15.2334151 L24.0837344,2.57290871 L3.90567854,2.46814765 L3.93108758,15.1377637 L8.30991338,15.1605379 L8.29509143,18.6836977 Z M2,0.411642619 L26,0.52551333 L26,17.2967524 L21.6169394,17.2762557 L21.6,20.797138 L19.1713186,20.7903058 L19.1713186,22.3936054 L8.80115496,22.3548894 L8.80327238,20.7356479 L6.37670837,20.7288156 L6.39364774,17.2102107 L2.00846968,17.1851591 L2,0.411642619 Z" transform="matrix(1 0 0 -1 0 22.805)"/>
          <path fill="#FFF" d="M14.8384538,13.7393676 L17.3463849,13.7461614 L17.3697368,19.2478632 L14.8618057,19.2427679 L14.8384538,13.7393676 Z M19.0090709,13.7393676 L21.517002,13.7461614 L21.5403539,19.2478632 L19.0324228,19.2427679 L19.0090709,13.7393676 Z M10.6706171,13.7393676 L13.1813286,13.7461614 L13.1963393,19.2478632 L10.6884082,19.2427679 L10.6706171,13.7393676 Z M6.5,13.7393676 L9.00793108,13.7461614 L9.02572219,19.2478632 L6.52057152,19.2427679 L6.5,13.7393676 Z"/>
        </g>
      </g>
      <text fill="#FFF" font-family="Xolonium" font-size="5" letter-spacing="-.017">
        <tspan x="90.458" y="40">LAN1</tspan>
      </text>
      <g transform="translate(53)">
        <use fill="#000" filter="url(#img_prod_xt8_back_outline-g)" xlink:href="#img_prod_xt8_back_outline-h"/>
        <use fill="#B6AA18" xlink:href="#img_prod_xt8_back_outline-h"/>
        <use fill="#000" filter="url(#img_prod_xt8_back_outline-i)" xlink:href="#img_prod_xt8_back_outline-h"/>
        <g transform="matrix(1 0 0 -1 0 26.248)">
          <path stroke="#F8E71C" stroke-width="1.368" d="M28.6837607,-0.435897436 L-0.683760684,-0.435897436 L-0.683760684,25.9316239 L28.6837607,25.9316239 L28.6837607,-0.435897436 Z"/>
          <path fill="#FFF" d="M8.29509143,18.6836977 L10.7237729,18.6905299 L10.7153032,20.307494 L17.26564,20.3325455 L17.2698749,18.7269685 L19.6964389,18.7338008 L19.7112608,15.210641 L24.0985563,15.2334151 L24.0837344,2.57290871 L3.90567854,2.46814765 L3.93108758,15.1377637 L8.30991338,15.1605379 L8.29509143,18.6836977 Z M2,0.411642619 L26,0.52551333 L26,17.2967524 L21.6169394,17.2762557 L21.6,20.797138 L19.1713186,20.7903058 L19.1713186,22.3936054 L8.80115496,22.3548894 L8.80327238,20.7356479 L6.37670837,20.7288156 L6.39364774,17.2102107 L2.00846968,17.1851591 L2,0.411642619 Z" transform="matrix(1 0 0 -1 0 22.805)"/>
          <path fill="#FFF" d="M14.8384538,13.7393676 L17.3463849,13.7461614 L17.3697368,19.2478632 L14.8618057,19.2427679 L14.8384538,13.7393676 Z M19.0090709,13.7393676 L21.517002,13.7461614 L21.5403539,19.2478632 L19.0324228,19.2427679 L19.0090709,13.7393676 Z M10.6706171,13.7393676 L13.1813286,13.7461614 L13.1963393,19.2478632 L10.6884082,19.2427679 L10.6706171,13.7393676 Z M6.5,13.7393676 L9.00793108,13.7461614 L9.02572219,19.2478632 L6.52057152,19.2427679 L6.5,13.7393676 Z"/>
        </g>
      </g>
      <text fill="#FFF" font-family="Xolonium" font-size="5" letter-spacing="-.017">
        <tspan x="60.458" y="40">LAN2</tspan>
      </text>
      <g transform="translate(23)">
        <use fill="#000" filter="url(#img_prod_xt8_back_outline-j)" xlink:href="#img_prod_xt8_back_outline-k"/>
        <use fill="#B6AA18" xlink:href="#img_prod_xt8_back_outline-k"/>
        <use fill="#000" filter="url(#img_prod_xt8_back_outline-l)" xlink:href="#img_prod_xt8_back_outline-k"/>
        <g transform="matrix(1 0 0 -1 0 26.248)">
          <path stroke="#F8E71C" stroke-width="1.368" d="M28.6837607,-0.435897436 L-0.683760684,-0.435897436 L-0.683760684,25.9316239 L28.6837607,25.9316239 L28.6837607,-0.435897436 Z"/>
          <path fill="#FFF" d="M8.29509143,18.6836977 L10.7237729,18.6905299 L10.7153032,20.307494 L17.26564,20.3325455 L17.2698749,18.7269685 L19.6964389,18.7338008 L19.7112608,15.210641 L24.0985563,15.2334151 L24.0837344,2.57290871 L3.90567854,2.46814765 L3.93108758,15.1377637 L8.30991338,15.1605379 L8.29509143,18.6836977 Z M2,0.411642619 L26,0.52551333 L26,17.2967524 L21.6169394,17.2762557 L21.6,20.797138 L19.1713186,20.7903058 L19.1713186,22.3936054 L8.80115496,22.3548894 L8.80327238,20.7356479 L6.37670837,20.7288156 L6.39364774,17.2102107 L2.00846968,17.1851591 L2,0.411642619 Z" transform="matrix(1 0 0 -1 0 22.805)"/>
          <path fill="#FFF" d="M14.8384538,13.7393676 L17.3463849,13.7461614 L17.3697368,19.2478632 L14.8618057,19.2427679 L14.8384538,13.7393676 Z M19.0090709,13.7393676 L21.517002,13.7461614 L21.5403539,19.2478632 L19.0324228,19.2427679 L19.0090709,13.7393676 Z M10.6706171,13.7393676 L13.1813286,13.7461614 L13.1963393,19.2478632 L10.6884082,19.2427679 L10.6706171,13.7393676 Z M6.5,13.7393676 L9.00793108,13.7461614 L9.02572219,19.2478632 L6.52057152,19.2427679 L6.5,13.7393676 Z"/>
        </g>
      </g>
      <text fill="#FFF" font-family="Xolonium" font-size="5" letter-spacing="-.017">
        <tspan x="30.458" y="40">LAN3</tspan>
      </text>
      <path fill="#FFF" d="M172.052786,36.0407337 C172.421218,36.0407337 172.716382,36.3269599 172.716382,36.6797035 C172.716382,37.0304314 172.421218,37.3146419 172.052786,37.3146419 C171.799489,37.3146419 171.577592,37.1755602 171.468737,36.9699611 C171.114959,36.9679454 169.806606,37.0384941 169.381654,38.1692892 L174.407821,38.1692892 L174.407821,37.7359185 C174.407821,37.6351346 174.491555,37.5504762 174.596223,37.5504762 C174.635997,37.5504762 174.673678,37.5645859 174.705078,37.5847427 L176.15578,38.3648099 C176.21858,38.388998 176.262541,38.4494683 176.262541,38.520017 C176.262541,38.5925814 176.216487,38.6530518 176.149499,38.6772399 L174.682051,39.37668 L174.677865,39.3746643 C174.652744,39.3847427 174.62553,39.3907897 174.596223,39.3907897 C174.491555,39.3907897 174.407821,39.3061313 174.407821,39.2053474 L174.407821,38.7901178 L170.392748,38.7901178 C170.503697,39.1025478 170.842822,39.7092668 171.885317,40.0438692 L172.331203,40.0438692 L172.34167,39.9289756 C172.34167,39.9289756 172.350044,39.757643 172.584501,39.7395019 L173.48046,39.7334549 C173.48046,39.7334549 173.714917,39.7495803 173.706544,40.0398379 L173.706544,40.801764 C173.706544,40.801764 173.69817,41.0154258 173.48046,41.0335669 C173.264844,41.0496923 172.567754,41.0335669 172.567754,41.0335669 C172.567754,41.0335669 172.34167,41.0557393 172.350044,40.7836229 L172.33539,40.6062432 L171.818329,40.6122903 C171.818329,40.6122903 170.116424,40.3300954 169.794046,38.7901178 L168.136102,38.7901178 C168.006313,39.1489084 167.648348,39.4109465 167.227582,39.4109465 C166.695867,39.4109465 166.262541,38.9937013 166.262541,38.4797035 C166.262541,37.9677214 166.695867,37.5504762 167.227582,37.5504762 C167.646255,37.5504762 168.00422,37.8104986 168.136102,38.1692892 L168.762018,38.1692892 C168.858313,37.7621223 169.358627,36.4761201 171.458271,36.40154 C171.565032,36.1898939 171.795302,36.0407337 172.052786,36.0407337 Z M12.0840502,1.63867188 C12.1415957,1.64267415 12.1950307,1.64867757 12.2813488,1.65868327 L12.2813488,1.65868327 L12.484813,1.71871747 L12.5896279,1.7659944 L12.5896279,1.7659944 L12.6944428,1.82677902 C12.7581538,1.86880295 12.8156992,1.91482917 12.8609135,1.96085538 L12.8609135,1.96085538 L13.0171082,2.14696139 L13.0559286,2.21003435 C13.0805909,2.2534665 13.1034264,2.30104915 13.1280887,2.36108335 L13.1280887,2.36108335 L13.0725985,2.38109475 L13.0895538,2.43612609 L13.0895538,2.43612609 L13.1034264,2.49115744 L13.1671374,2.48515402 L13.1054816,2.50116313 L13.12218,2.55844576 L13.12218,2.55844576 L13.1342543,2.61722924 L13.1938549,2.61722924 L13.2000205,2.72328965 L13.1979653,26.9016437 L13.1920566,26.9726842 L13.1920566,26.9726842 L13.1815237,27.0497281 L13.1198679,27.2538443 L13.0885833,27.3242548 C13.0662045,27.3699104 13.0410855,27.4126014 13.015053,27.449956 L13.015053,27.449956 L12.8609135,27.636062 L12.8056516,27.6849788 C12.767288,27.716997 12.7252707,27.7481259 12.6759461,27.7801441 C12.6163454,27.8161646 12.5505792,27.8481828 12.4807026,27.8781999 L12.4807026,27.8781999 L12.3388943,27.8802011 L12.2432136,27.9104405 C12.1797309,27.931786 12.1162483,27.9522421 12.0491119,27.9522421 L12.0491119,27.9522421 L2.04824244,27.9522421 L1.82628151,27.9542433 L1.6310381,27.9382341 L1.54609009,27.9218544 C1.4903715,27.9091064 1.43647975,27.8922079 1.38441484,27.8681942 L1.38441484,27.8681942 L1.30837267,27.8281714 L1.2962984,27.8261703 L1.2962984,27.8261703 L1.28576554,27.8241692 L1.27137918,27.8121623 L1.18917143,27.7681373 L1.10079809,27.7028501 L1.10079809,27.7028501 L1.01859034,27.6300586 L0.870616387,27.4199389 L0.845954061,27.3974261 L0.845954061,27.3974261 L0.821291735,27.3719116 L0.821291735,27.3719116 L0.811015766,27.3358911 L0.782243053,27.2958683 L0.685648944,26.9096483 L0.702090494,26.9096483 L0.695924913,26.8836335 L0.68359375,26.8836335 L0.68359375,26.8636221 L0.685648944,2.69727484 L0.692585223,2.62148167 L0.692585223,2.62148167 L0.704145688,2.54718935 L0.761691115,2.34907651 L0.796705528,2.27043913 C0.82106338,2.22167061 0.846639126,2.18031372 0.868561193,2.14696139 L0.868561193,2.14696139 L1.00625918,1.97886564 L1.06266283,1.92372312 C1.10239658,1.888592 1.14669742,1.85612907 1.1973922,1.82277674 C1.2652136,1.7807528 1.33303499,1.74473229 1.51389205,1.68269695 C1.5652719,1.66668783 1.61665174,1.65668213 1.67008678,1.64867757 L1.67008678,1.64867757 Z M12.0491119,2.66125432 L1.81189515,2.66125432 L1.71735624,2.75330675 L1.71735624,26.8596198 L1.78106725,26.9216551 L1.82422632,26.9516722 L7.96133146,26.9516722 L12.0511671,26.9496711 L12.1436509,26.8596198 L12.1436509,2.75330675 L12.0491119,2.66125432 Z M11.0967351,3.74028271 L11.0967351,25.8526324 L2.7868791,25.8526324 L2.7868791,3.74028271 L11.0967351,3.74028271 Z"/>
      <path fill="#FEFEFE" d="M175.670228,1.04073373 C175.764547,1.04743809 175.852129,1.05749463 175.993607,1.07425553 L175.993607,1.07425553 L176.327093,1.17482092 L176.441623,1.22473115 C176.517976,1.2619776 176.59433,1.30667333 176.670683,1.35583863 C176.775108,1.4262344 176.869427,1.50333454 176.943535,1.58043467 L176.943535,1.58043467 L177.199544,1.89218739 L177.247861,1.97085886 C177.294284,2.05099691 177.335969,2.13773456 177.381444,2.25087063 L177.381444,2.25087063 L177.290494,2.28439242 L177.318284,2.37657737 L177.318284,2.37657737 L177.341022,2.46876231 L177.445447,2.45870577 L177.344391,2.48552321 L177.37176,2.58147936 L177.37176,2.58147936 L177.39155,2.67994964 L177.489238,2.67994964 L177.499343,2.85761516 L177.495975,26.3088162 L177.48629,26.4278186 L177.48629,26.4278186 L177.469026,26.5568775 L177.36797,26.8987998 L177.316694,27.0167469 C177.280014,27.0932262 177.238843,27.1647394 177.196175,27.2273134 L177.196175,27.2273134 L176.943535,27.5390662 L176.852959,27.6210083 C176.790079,27.6746432 176.721211,27.7267882 176.640366,27.7804231 C176.542679,27.8407623 176.434886,27.8943972 176.320355,27.9446799 L176.320355,27.9446799 L176.087926,27.9480321 L175.970133,27.9852727 C175.852971,28.0253417 175.736756,28.0687106 175.612963,28.0687106 L175.612963,28.0687106 L165.499249,28.0687106 L165.135448,28.0720627 L164.815437,28.0452453 L164.676204,28.0178071 C164.584879,27.9964525 164.496548,27.9681452 164.411212,27.927919 L164.411212,27.927919 L164.286576,27.8608754 L164.266786,27.8575232 L164.266786,27.8575232 L164.249522,27.854171 L164.225943,27.834058 L164.091201,27.76031 L163.994013,27.6891693 C163.929886,27.6392591 163.867755,27.5848793 163.811613,27.5290096 L163.811613,27.5290096 L163.569078,27.1770307 L163.543627,27.1509582 C163.524164,27.1353147 163.501707,27.1211611 163.488233,27.0965784 L163.488233,27.0965784 L163.47139,27.0362392 L163.424231,26.9691956 L163.26591,26.3222249 L163.292858,26.3222249 L163.287805,26.2991787 L163.287805,26.2991787 L163.282752,26.2786466 L163.262541,26.2786466 L163.262541,26.2451248 L163.26591,2.81403683 L163.277278,2.68707302 L163.277278,2.68707302 L163.296226,2.56262335 L163.390546,2.23075755 L163.447935,2.0990293 C163.487859,2.01733544 163.529778,1.94805705 163.565709,1.89218739 L163.565709,1.89218739 L163.791401,1.61060429 L163.883849,1.51823312 C163.948974,1.45938374 164.021585,1.40500393 164.104675,1.34913427 C164.215837,1.27873849 164.326999,1.21839926 164.62343,1.11448169 C164.707643,1.08766425 164.791857,1.07090335 164.879439,1.05749463 L164.879439,1.05749463 Z M175.612963,2.75369759 L165.111868,2.75369759 L164.956915,2.90789786 L164.956915,26.2384204 L165.06134,26.342338 L165.132079,26.3926207 L170.912943,26.3926207 L175.616331,26.3892685 L175.767915,26.2384204 L175.767915,2.90789786 L175.612963,2.75369759 Z M173.669831,3.28911888 L173.669831,25.1245692 L166.830373,25.1245692 L166.830373,3.28911888 L173.669831,3.28911888 Z M170.928801,4.96520877 L168.059165,4.96520877 L168.059165,23.4484794 L170.928801,23.4484794 L170.928801,4.96520877 Z"/>
    </g>
  </g>
</svg>
