<svg xmlns="http://www.w3.org/2000/svg" width="24" height="24" viewBox="0 0 24 24">
  <g fill="none" fill-rule="evenodd" transform="translate(1 3)">
    <path fill="#000" fill-opacity=".6" d="M20.4285714,0 C21.2964475,-1.59426241e-16 22,0.703552536 22,1.57142857 L22,17.2857143 C22,18.1535903 21.2964475,18.8571429 20.4285714,18.8571429 L1.57142857,18.8571429 C0.703552536,18.8571429 1.06284161e-16,18.1535903 0,17.2857143 L0,1.57142857 C-1.06284161e-16,0.703552536 0.703552536,-6.26183636e-17 1.57142857,0 L20.4285714,0 Z M14.9285714,2.35714286 L7.07142857,2.35714286 C6.63749055,2.35714286 6.28571429,2.70891913 6.28571429,3.14285714 L6.28571429,3.14285714 L6.28557143,5.49914286 L4.71428571,5.5 C4.2803477,5.5 3.92857143,5.85177627 3.92857143,6.28571429 L3.92857143,6.28571429 L3.92857143,14.9285714 C3.92857143,15.3625094 4.2803477,15.7142857 4.71428571,15.7142857 L4.71428571,15.7142857 L17.2857143,15.7142857 C17.7196523,15.7142857 18.0714286,15.3625094 18.0714286,14.9285714 L18.0714286,14.9285714 L18.0714286,6.28571429 C18.0714286,5.85177627 17.7196523,5.5 17.2857143,5.5 L17.2857143,5.5 L15.7135714,5.49914286 L15.7142857,3.14285714 C15.7142857,2.70891913 15.3625094,2.35714286 14.9285714,2.35714286 L14.9285714,2.35714286 Z"/>
    <text fill="#000" font-family="DINAlternate-Bold, DIN Alternate" font-size="9" font-weight="bold" letter-spacing="-.05">
      <tspan x="8.865" y="13">7</tspan>
    </text>
  </g>
</svg>
