<svg xmlns="http://www.w3.org/2000/svg" width="24" height="24" viewBox="0 0 24 24">
  <path fill-rule="evenodd" d="M11.1538462,1 C12.2421932,1 13.1334323,1.84391965 13.208874,2.91306955 L13.2140468,3.06020067 L13.214,9.608 L20.3511706,9.60869565 C21.757813,9.60869565 22.9083655,10.7051466 22.9947888,12.0900089 L23,12.2575251 L23,20.3511706 C23,21.8140787 21.8140787,23 20.3511706,23 L20.3511706,23 L12.2575251,23 C10.794617,23 9.60869565,21.8140787 9.60869565,20.3511706 L9.60869565,20.3511706 L9.608,13.214 L3.06020067,13.2140468 C1.97185358,13.2140468 1.08061449,12.3701272 1.0051728,11.3009773 L1,11.1538462 L1,3.06020067 C1,1.97185358 1.84391965,1.08061449 2.91306955,1.0051728 L3.06020067,1 L11.1538462,1 Z M3.42809365,14.9247492 C3.68207075,14.9247492 3.88795987,15.1306383 3.88795987,15.3846154 C3.88795987,15.6103728 3.72528204,15.7981348 3.51075518,15.8370725 L3.42809365,15.8444816 L2.0632107,15.8444816 L2.07201405,15.9789027 C2.18179347,17.3363239 2.67605046,18.4897245 3.55827947,19.4542943 L3.75326817,19.6581031 C4.89186918,20.7967041 6.30729961,21.3628763 8.02675585,21.3628763 C8.28073295,21.3628763 8.48662207,21.5687654 8.48662207,21.8227425 C8.48662207,22.0767196 8.28073295,22.2826087 8.02675585,22.2826087 C6.06728233,22.2826087 4.41693795,21.6224709 3.10291912,20.3084521 C1.85805918,19.0635922 1.20006203,17.5168777 1.13424754,15.691433 L1.12876254,15.3846154 L1.12876254,14.9247492 L3.42809365,14.9247492 Z M20.3511706,10.7859532 L12.2575251,10.7859532 C11.4447984,10.7859532 10.7859532,11.4447984 10.7859532,12.2575251 L10.7859532,12.2575251 L10.7859532,20.3511706 C10.7859532,21.1638973 11.4447984,21.8227425 12.2575251,21.8227425 L12.2575251,21.8227425 L20.3511706,21.8227425 C21.1638973,21.8227425 21.8227425,21.1638973 21.8227425,20.3511706 L21.8227425,20.3511706 L21.8227425,12.2575251 C21.8227425,11.4447984 21.1638973,10.7859532 20.3511706,10.7859532 L20.3511706,10.7859532 Z M16.6840875,12.8249721 L16.7270316,12.9041341 L19.4862289,19.3422612 C19.5862754,19.575703 19.4781371,19.8460486 19.2446953,19.9460951 C19.0371915,20.0350253 18.8005291,19.9594639 18.6802334,19.7776209 L18.6408614,19.7045616 L17.971,18.143 L14.636,18.143 L13.9678343,19.7045616 C13.878904,19.9120654 13.6554165,20.0205639 13.4428968,19.9718471 L13.3640003,19.9460951 C13.1564965,19.8571649 13.047998,19.6336773 13.0967148,19.4211577 L13.1224668,19.3422612 L15.8816641,12.9041341 C16.0286791,12.561099 16.4888887,12.5347117 16.6840875,12.8249721 Z M16.3043478,14.2524247 L15.03,17.224 L17.577,17.224 L16.3043478,14.2524247 Z M11.1538462,2.17725753 L3.06020067,2.17725753 C2.60739578,2.17725753 2.23420104,2.51810906 2.18319773,2.95723085 L2.17725753,3.06020067 L2.17725753,11.1538462 C2.17725753,11.606651 2.51810906,11.9798458 2.95723085,12.0308491 L3.06020067,12.0367893 L9.61784625,12.0357717 C9.64092046,11.7573801 9.70704645,11.4912063 9.80954945,11.2439249 L9.86622074,11.2458194 C8.71885059,11.2458194 7.79359157,10.9921252 7.1062163,10.4734457 C6.41945258,10.9923659 5.49452718,11.2458194 4.34770132,11.2458194 C4.09372422,11.2458194 3.8878351,11.0399303 3.8878351,10.7859532 C3.8878351,10.5319761 4.09372422,10.326087 4.34770132,10.326087 C5.24867171,10.326087 5.94630312,10.1508994 6.45386865,9.81002605 C5.89615275,9.07947866 5.36158715,7.92360151 4.83129113,6.33271344 C4.8152282,6.28452467 4.80758649,6.2355564 4.80756758,6.18740546 L3.88795987,6.18729097 C3.63398277,6.18729097 3.42809365,5.98140185 3.42809365,5.72742475 C3.42809365,5.50166733 3.59077147,5.31390534 3.80529833,5.27496759 L3.88795987,5.26755853 L6.64715719,5.26755853 L6.64715719,3.42809365 C6.64715719,3.17411654 6.85304631,2.96822742 7.10702341,2.96822742 C7.33278083,2.96822742 7.52054282,3.13090525 7.55948057,3.34543211 L7.56688963,3.42809365 L7.56688963,5.26755853 L10.326087,5.26755853 C10.5800641,5.26755853 10.7859532,5.47344765 10.7859532,5.72742475 C10.7859532,5.95318217 10.6232754,6.14094415 10.4087485,6.17988191 L10.326087,6.18729097 L9.40635448,6.18740546 C9.40633557,6.2355564 9.39869386,6.28452467 9.38263093,6.33271344 C8.85233491,7.92360151 8.31776931,9.07947866 7.76124605,9.81089067 C8.26761894,10.1508994 8.96525035,10.326087 9.86622074,10.326087 C10.0262792,10.326087 10.167239,10.4078584 10.2496031,10.5319044 C10.6886542,10.0191142 11.3220624,9.67700133 12.0357717,9.61784625 L12.0367893,3.06020067 C12.0367893,2.60739578 11.6959378,2.23420104 11.256816,2.18319773 L11.1538462,2.17725753 Z M8.46,6.187 L5.753,6.187 L5.81480382,6.36795038 C6.25404981,7.6314782 6.68888738,8.56094042 7.10693313,9.14895395 C7.56021449,8.51145731 8.03317694,7.47262608 8.51009613,6.0418685 L8.46,6.187 Z M15.3846154,1.12876254 C17.3440889,1.12876254 18.9944333,1.78890029 20.3084521,3.10291912 C21.5533121,4.34777907 22.2113092,5.89449352 22.2771237,7.7199382 L22.2826087,8.02675585 L22.2826087,8.48662207 L19.9832776,8.48662207 C19.7293005,8.48662207 19.5234114,8.28073295 19.5234114,8.02675585 C19.5234114,7.80099843 19.6860892,7.61323645 19.9006161,7.57429869 L19.9832776,7.56688963 L21.3481605,7.56688963 L21.3393572,7.43246857 C21.2295778,6.07504736 20.7353208,4.92164672 19.8530918,3.95707696 L19.6581031,3.75326817 C18.5195021,2.61466716 17.1040716,2.04849498 15.3846154,2.04849498 C15.1306383,2.04849498 14.9247492,1.84260586 14.9247492,1.58862876 C14.9247492,1.33465166 15.1306383,1.12876254 15.3846154,1.12876254 Z"/>
</svg>
