<svg xmlns="http://www.w3.org/2000/svg" width="24" height="24" viewBox="0 0 24 24">
  <path fill-rule="evenodd" d="M10.1215402,2.09904221 C11.2155002,1.75140211 12.3868082,2.3481214 12.7377297,3.43185206 C12.803607,3.63529725 12.8371468,3.84765394 12.8371468,4.06131017 L12.8371468,4.06131017 L12.8371468,20.9392446 C12.8371468,22.0773684 11.9058064,23 10.7569398,23 C10.5412668,23 10.3269057,22.9667738 10.1215402,22.9015125 L10.1215402,22.9015125 L4.24480744,21.0339964 C3.3839404,20.7604289 2.8,19.9673492 2.8,19.0717285 L2.8,19.0717285 L2.8,5.92882627 C2.8,5.03320557 3.3839404,4.24012581 4.24480744,3.96655832 L4.24480744,3.96655832 Z M11.6257073,3.78523205 C11.4717943,3.30991158 10.9580628,3.04819259 10.4782557,3.20066633 L10.4782557,3.20066633 L4.601523,5.06818243 C4.22394973,5.18816817 3.96783552,5.53601017 3.96783552,5.92882627 L3.96783552,5.92882627 L3.96783552,19.0717285 C3.96783552,19.4645445 4.22394973,19.8123865 4.601523,19.9323723 L4.601523,19.9323723 L10.4782557,21.7998884 C10.5683283,21.8285118 10.6623464,21.8430847 10.7569398,21.8430847 C11.2608286,21.8430847 11.6693113,21.4384217 11.6693113,20.9392446 L11.6693113,20.9392446 L11.6693113,4.06131017 C11.6693113,3.96760129 11.6546008,3.87446239 11.6257073,3.78523205 Z M18.9261483,14.2460813 L18.9261483,17.9822035 L18.9210432,18.1198109 C18.8537308,19.0236523 18.1287076,19.7463021 17.2182835,19.8198668 L17.0649105,19.8260373 L14.6927446,19.8260373 L14.6064575,19.8197653 C14.3248837,19.7784493 14.1088268,19.5380099 14.1088268,19.2475796 C14.1088268,18.9600536 14.3205842,18.7215237 14.5980301,18.676693 L14.6927446,18.6691219 L17.0649105,18.6691219 L17.1590011,18.6628512 C17.4636062,18.6219143 17.7053646,18.3850248 17.7506702,18.0845392 L17.7583128,17.9822035 L17.7583128,14.2460813 L18.9261483,14.2460813 Z M20.3353326,9.17252141 L22.4672252,11.3180817 C22.6256355,11.4851613 22.7131489,11.7057769 22.7131489,11.9422768 C22.7131489,12.1781885 22.6256355,12.3999807 22.4672252,12.5658836 L20.3353326,14.711444 C20.1165492,14.9414725 19.7615107,14.9414725 19.5421733,14.711444 C19.3233899,14.4820037 19.3233899,14.1096046 19.5421733,13.879576 L20.9146934,12.5311734 L15.5538822,12.3896211 C15.2481392,12.3896211 15,12.126059 15,11.8013128 C15,11.4765666 15.2481392,11.2130045 15.5538822,11.2130045 L20.9158012,11.3545569 L19.5421733,10.0043893 C19.3233899,9.77436079 19.3233899,9.40254995 19.5421733,9.17252141 C19.7615107,8.94249286 20.1165492,8.94249286 20.3353326,9.17252141 Z M17.0649105,4.4 C18.0461195,4.4 18.8499912,5.15217153 18.9210432,6.10622634 L18.9261483,6.24383382 L18.9261483,9.97995599 L17.7583128,9.97995599 L17.7583128,6.24383382 C17.7583128,5.89607377 17.4974513,5.60867148 17.1590011,5.56318609 L17.0649105,5.55691534 L14.6927446,5.55691534 C14.3702557,5.55691534 14.1088268,5.29793102 14.1088268,4.97845767 C14.1088268,4.68802735 14.3248837,4.44758797 14.6064575,4.40627197 L14.6927446,4.4 L17.0649105,4.4 Z"/>
</svg>
