<svg xmlns="http://www.w3.org/2000/svg" xmlns:xlink="http://www.w3.org/1999/xlink" width="24" height="24" viewBox="0 0 24 24">
  <defs>
    <path id="ic_more_horiz-a" d="M6,10 C4.9,10 4,10.9 4,12 C4,13.1 4.9,14 6,14 C7.1,14 8,13.1 8,12 C8,10.9 7.1,10 6,10 L6,10 Z M18,10 C16.9,10 16,10.9 16,12 C16,13.1 16.9,14 18,14 C19.1,14 20,13.1 20,12 C20,10.9 19.1,10 18,10 L18,10 Z M12,10 C10.9,10 10,10.9 10,12 C10,13.1 10.9,14 12,14 C13.1,14 14,13.1 14,12 C14,10.9 13.1,10 12,10 L12,10 Z"/>
    <rect id="ic_more_horiz-c" width="50" height="50" x="0" y="0"/>
  </defs>
  <g fill="none" fill-rule="evenodd">
    <mask id="ic_more_horiz-b" fill="#fff">
      <use xlink:href="#ic_more_horiz-a"/>
    </mask>
    <g mask="url(#ic_more_horiz-b)">
      <use fill="#0070FF" transform="translate(-13 -13)" xlink:href="#ic_more_horiz-c"/>
    </g>
  </g>
</svg>
