<svg xmlns="http://www.w3.org/2000/svg" width="24" height="24" viewBox="0 0 24 24">
  <path fill-rule="evenodd" d="M21,18.9074899 L21,19.9638617 C21,20.4970937 20.6015926,20.9375509 20.091606,20.9939086 L19.9807198,21 L14.3672611,21 C13.8426291,21 13.4094038,20.5950916 13.3539721,20.0765995 L13.3479808,19.9638617 L13.3479808,18.9074899 L21,18.9074899 Z M14.9097319,3 C15.7522713,3 16.4603245,3.62278799 16.5967443,4.45106449 L16.6141131,4.5909417 L16.6200097,4.73420151 L16.6200097,6.71760446 L15.5121785,6.71760446 L15.5113121,6.30288595 L4.21577174,6.30288595 L4.21577174,17.1549648 L12.3318392,17.1551401 L12.3318392,18.0726526 L4.21577174,18.0719263 L4.21580591,18.8751996 C4.21580591,19.1949762 4.41066984,19.4718692 4.68290123,19.5833036 L4.77634932,19.6141521 L4.86546149,19.6307118 L4.96000415,19.6365224 L12.3622857,19.6365224 L12.3622857,19.7476642 C12.4104387,19.9950972 12.47649,20.2379711 12.5478931,20.4091522 L12.5912767,20.5027207 L12.7801471,20.8106785 L4.71027778,20.8106785 C3.86771372,20.8106785 3.15968065,20.1880135 3.02326492,19.3597886 L3.00589666,19.2199193 L3,19.0766609 L3,4.73420151 C3,3.88193478 3.61216967,3.1626821 4.43054968,3.02371883 L4.5687861,3.00600803 L4.71027778,3 L14.9097319,3 Z M17.4708734,19.5006988 L16.8771074,19.5006988 C16.6384793,19.5006988 16.4450802,19.6971476 16.4450802,19.9399494 C16.4450802,20.1556097 16.5978894,20.3347907 16.7994431,20.3719462 L16.8771074,20.379016 L17.4708734,20.379016 C17.7095015,20.379016 17.9027197,20.1825672 17.9027197,19.9399494 C17.9027197,19.6971476 17.7095015,19.5006988 17.4708734,19.5006988 Z M10.2053769,18.4388159 C10.4582723,18.4388159 10.6611889,18.6451261 10.6611889,18.8975722 C10.6611889,19.08825 10.5446976,19.2556198 10.3645699,19.3253609 L10.2836302,19.3490561 L10.2053769,19.3563284 L9.41459668,19.3563284 C9.16170129,19.3563284 8.95878464,19.1500182 8.95878464,18.8975722 C8.95878464,18.7068943 9.0752759,18.5395245 9.25540369,18.4697834 L9.33634333,18.4460882 L9.41459668,18.4388159 L10.2053769,18.4388159 Z M21,10.4628246 L21,18.2637524 L13.3479808,18.2637524 L13.3479808,10.4628246 L21,10.4628246 Z M19.9807198,7.69885709 C20.5051829,7.69885709 20.9385545,8.10376548 20.9940065,8.62240715 L21,8.73517935 L21,9.7637761 L13.3479808,9.7637761 L13.3479808,8.73517935 C13.3479808,8.20177566 13.7462306,7.76130702 14.2563434,7.70494855 L14.3672611,7.69885709 L19.9807198,7.69885709 Z M14.7679803,4.10169559 L4.96000415,4.10169559 C4.58988067,4.10169559 4.31780088,4.27209138 4.23989241,4.54676983 L4.22244113,4.63223573 L4.21577174,4.73420151 L4.21577174,5.33026816 L15.5113121,5.33026816 L15.5121785,4.73420151 C15.5121785,4.37767641 15.2611382,4.14329999 14.8761963,4.10671312 L14.7679803,4.10169559 Z"/>
</svg>
