<svg xmlns="http://www.w3.org/2000/svg" width="24" height="24" viewBox="0 0 24 24">
  <g fill="none" fill-rule="evenodd">
    <path fill="#000" d="M11.7522174,20.261789 C10.901608,20.6333044 9.94096677,20.4374145 9.3047201,19.841864 L13.0840025,18.1908719 C13.1022461,19.0560526 12.6028267,19.8902736 11.7522174,20.261789 M6.29794149,6.12224946 C6.38744931,5.88526764 6.5687454,5.68205996 6.82073557,5.57229404 C7.07500619,5.46083941 7.35094113,5.46646843 7.58981869,5.5621618 C7.81786409,5.65391485 8.01227279,5.82841452 8.12002424,6.06764795 C8.24886989,6.35529095 8.22093433,6.66995327 8.07897607,6.92663665 C7.97863609,7.10732825 7.82356522,7.26043764 7.61775425,7.35050199 C7.41251339,7.44000343 7.19415991,7.45069857 6.99119951,7.40285189 C6.70272207,7.33417782 6.44788134,7.14222818 6.31903569,6.85458518 C6.21071412,6.61366305 6.21128423,6.35191354 6.29794149,6.12224946 M19.2765754,14.1441683 L17.3182355,12.9063464 L16.2618152,10.5489121 C16.250983,10.5489121 16.2424313,10.5489121 16.2315992,10.5489121 C16.2122153,10.5680508 16.1922613,10.5871895 16.1723074,10.6063281 L16.0542939,10.7217231 C15.9414114,10.8326148 15.7863405,11.0273789 15.6364007,11.2148254 C15.4938723,11.3943912 15.3450727,11.5728311 15.1917121,11.7422647 L15.9761883,13.4923275 L16.1546338,13.8914252 L16.526918,14.1267183 L17.4396697,14.703693 L13.9408831,16.2319724 L12.5617785,16.8342777 L8.63882753,18.5483148 L7.26029308,19.1506201 L6.52313632,19.4726002 L6.70500253,18.4171586 L6.77854717,17.9871014 L6.60010164,17.5885666 L4.90572431,13.8081157 C4.06138621,11.9235192 4.48270009,9.79968932 5.8002324,8.36147428 C6.47125599,8.84894756 7.37488589,8.98629569 8.19128843,8.62997861 C9.00198983,8.27535025 9.50597017,7.53063068 9.59718833,6.71892575 C10.0931871,6.72793219 10.585195,6.81067881 11.0578191,6.95928498 C11.0578191,6.80223527 11.057249,6.64462267 11.0578191,6.48757296 L11.0589594,5.78169364 L11.0589594,5.46646843 C10.4820045,5.32686869 9.8873761,5.25875753 9.28704658,5.27845911 C8.68101593,4.24440782 7.3794468,3.7980264 6.24720139,4.29225451 C5.12122722,4.784231 4.5801895,6.02543028 4.93594033,7.15911525 C3.06596804,9.00599726 2.42972137,11.8627258 3.56424724,14.3946597 L5.25805446,18.1745478 L4.86866693,20.4385403 C4.7614856,21.0599843 5.39830238,21.5485834 5.98152849,21.2935887 L7.89996043,20.4554274 C8.91533258,21.7737442 10.7453969,22.2859852 12.3462756,21.5868607 C13.9471544,20.8871733 14.7937729,19.2057845 14.4881921,17.5773086 L19.1688239,15.532285 C19.7526202,15.2778532 19.8141924,14.4835983 19.2765754,14.1441683"/>
    <path fill="#000" d="M14.0746887,6.81816541 L17.7011807,6.81816541 C17.9571617,6.81816541 18.1641129,7.0230618 18.1641129,7.27524197 C18.1641129,7.52742214 17.9571617,7.73231853 17.7011807,7.73231853 L14.0746887,7.73231853 C13.8192779,7.73231853 13.6117566,7.52742214 13.6117566,7.27524197 C13.6117566,7.0230618 13.8192779,6.81816541 14.0746887,6.81816541 M14.0746887,4.72304354 L16.4902597,4.72304354 C16.7456705,4.72304354 16.9531918,4.92737702 16.9531918,5.1801201 C16.9531918,5.43230027 16.7456705,5.63719666 16.4902597,5.63719666 L14.0746887,5.63719666 C13.8192779,5.63719666 13.6117566,5.43230027 13.6117566,5.1801201 C13.6117566,4.92737702 13.8192779,4.72304354 14.0746887,4.72304354 M19.8801546,3 C19.4263442,3 19.0472187,2.9994371 18.6823461,2.9994371 C18.14929,2.9994371 17.6464498,3 16.9845481,3 L16.9845481,3.0005629 C16.311244,3.0005629 15.63794,2.9994371 14.965206,2.9994371 C14.4863107,2.9994371 13.7725286,3 13.2936332,3.00225161 C12.7058462,3.00450322 12.2748404,3.40360085 12.2708496,3.97382075 C12.2691393,4.20686225 12.2719899,4.43934084 12.2708496,4.67181944 C12.2691393,5.04220907 12.2708496,5.41316159 12.2702795,5.78355122 C12.2702795,5.81619955 12.2702795,5.84884787 12.2702795,5.8814962 C12.2697094,6.42863711 12.2697094,6.97577801 12.2697094,7.52291892 C12.2697094,7.8038071 12.2679991,8.08413238 12.2697094,8.36502056 C12.27256,8.88457926 12.5895431,9.23920763 13.1094866,9.33208649 C13.2656977,9.3602316 13.5387821,9.29437204 13.5387821,9.5679425 C13.5387821,9.90399509 13.4988741,10.4702747 13.4965937,10.8063273 C13.4954534,10.9785753 13.4891822,11.1553266 13.6858713,11.2369474 C13.7354712,11.2577748 13.7816504,11.2667812 13.824979,11.2667812 C13.9623764,11.2667812 14.0701278,11.1744653 14.176169,11.0703284 C14.3261088,10.9217222 14.4857406,10.7241436 14.6453724,10.5237504 C14.8335098,10.2878944 15.0222174,10.0486609 15.1989526,9.87416128 C15.3169661,9.75876633 15.4366899,9.64506009 15.5524229,9.52797644 C15.6139952,9.4654943 15.6767077,9.42327664 15.7445512,9.39569443 C15.8163855,9.36586062 15.8939209,9.35235097 15.9839989,9.35235097 L15.9868494,9.35235097 C16.014785,9.35235097 16.0375895,9.35235097 16.064955,9.35235097 C16.7929899,9.35460258 17.4127033,9.35516548 18.0346971,9.35516548 C18.6042405,9.35516548 19.1794851,9.35460258 19.8544994,9.35403967 C20.5990677,9.35347677 20.9930161,8.98196134 20.9958667,8.25919496 C21.0015678,6.86544919 21.0009977,5.47170342 20.9964368,4.07852055 C20.9947265,3.38671379 20.5893757,3.0005629 19.8801546,3"/>
  </g>
</svg>
