<svg xmlns="http://www.w3.org/2000/svg" width="24" height="24" viewBox="0 0 24 24">
  <path fill-rule="evenodd" d="M21.2711236,8.13222742 C21.7527784,9.32679897 22,10.6024422 22,11.9051977 C22,17.4804031 17.4803762,22 11.9051377,22 C9.77697883,22 7.73163439,21.3375317 6.02417927,20.111217 L5.97623352,20.0757589 L6.00303154,20.6756031 C6.01296932,20.8962203 5.8986861,21.0967259 5.71322708,21.2053419 L5.6295416,21.2460565 L5.53806861,21.2742636 L5.44494015,21.286341 C5.19280466,21.2976984 4.96693765,21.1468089 4.8744834,20.9128533 L4.84627604,20.8213808 L4.83419862,20.7282529 L4.74279095,18.6990148 C4.73192851,18.45787 4.86973864,18.2392656 5.08954019,18.139593 L5.17567888,18.107979 L5.26399181,18.0911098 L7.36636816,17.862592 C7.68756787,17.8276792 7.97625427,18.059759 8.01116729,18.3809568 C8.03844047,18.6318686 7.90212979,18.8668208 7.67448505,18.9738788 L7.58497811,19.0078119 L7.49298285,19.025732 L6.64990803,19.1196403 L6.65912508,19.1265005 C7.9988494,20.1021007 9.57740799,20.6822987 11.2372426,20.8053128 L11.5702466,20.8238015 L11.9051377,20.8299888 C16.834193,20.8299888 20.8299819,16.8342237 20.8299819,11.9051977 C20.8299819,10.7524844 20.6116149,9.62535864 20.1859908,8.56975105 C20.0651712,8.27010167 20.2101429,7.92924486 20.5097941,7.80842604 C20.8094452,7.68760723 21.1503041,7.83257804 21.2711236,8.13222742 Z M14.0415322,8 C14.2930941,8 14.5260433,8.13255146 14.6545481,8.34881495 L16.9047597,12.1357429 C17.0381679,12.3602583 17.0381679,12.6397417 16.9047597,12.8642571 L14.6545481,16.6511851 C14.5260433,16.8674485 14.2930941,17 14.0415322,17 L9.93779573,17 C9.68520119,17 9.45145614,16.866367 9.32330629,16.6486938 L7.09384369,12.8617659 C6.96240015,12.6384981 6.96240015,12.3615019 7.09384369,12.1382341 L9.32330629,8.35130623 C9.45145614,8.13363304 9.68520119,8 9.93779573,8 L14.0415322,8 Z M12.0948623,2 C14.222639,2 16.2676373,2.66223031 17.9749163,3.88813358 L18.0246781,3.92503404 L17.9969344,3.32430608 C17.9869966,3.10368883 18.1012798,2.90318328 18.2867388,2.79456728 L18.3704243,2.75385272 L18.4618973,2.72564553 L18.5550258,2.71356817 C18.8071613,2.70221079 19.0330283,2.85310025 19.1254825,3.0870559 L19.1536899,3.17852835 L19.1657673,3.27165626 L19.257175,5.30089442 C19.2680374,5.54203917 19.1302273,5.76064355 18.9104257,5.86031615 L18.824287,5.89193018 L18.7359741,5.9087994 L16.6335978,6.13731722 C16.312398,6.17223002 16.0237116,5.94015017 15.9887986,5.61895237 C15.9615254,5.36804058 16.0978361,5.13308835 16.3254809,5.02603033 L16.4149878,4.99209724 L16.5070811,4.97416639 L17.3519177,4.88206663 L17.3417417,4.87413069 C16.0018706,3.89817788 14.4230361,3.3177581 12.7628856,3.19469674 L12.429818,3.1762009 L12.0948623,3.17001119 C7.16580696,3.17001119 3.17001814,7.16577629 3.17001814,12.0948023 C3.17001814,13.2475156 3.38838507,14.3746414 3.81400924,15.430249 C3.93482877,15.7298983 3.7898571,16.0707551 3.49020594,16.191574 C3.19055479,16.3123928 2.84969595,16.167422 2.72887642,15.8677726 C2.24722156,14.673201 2,13.3975578 2,12.0948023 C2,6.51959695 6.51962378,2 12.0948623,2 Z M12.0214046,10.812137 C11.1263617,10.812137 10.4007862,11.5537266 10.4007862,12.4685237 C10.4007862,13.3833209 11.1263617,14.1249105 12.0214046,14.1249105 C12.9164474,14.1249105 13.642023,13.3833209 13.642023,12.4685237 C13.642023,11.5537266 12.9164474,10.812137 12.0214046,10.812137 Z"/>
</svg>
