<svg xmlns="http://www.w3.org/2000/svg" xmlns:xlink="http://www.w3.org/1999/xlink" width="24" height="24" viewBox="0 0 24 24">
  <defs>
    <path id="ic_refresh-a" d="M17.65,6.35 C16.2,4.9 14.21,4 12,4 C7.58,4 4.01,7.58 4.01,12 C4.01,16.42 7.58,20 12,20 C15.73,20 18.84,17.45 19.73,14 L17.65,14 C16.83,16.33 14.61,18 12,18 C8.69,18 6,15.31 6,12 C6,8.69 8.69,6 12,6 C13.66,6 15.14,6.69 16.22,7.78 L13,11 L20,11 L20,4 L17.65,6.35 L17.65,6.35 Z"/>
    <rect id="ic_refresh-c" width="50" height="50" x="0" y="0"/>
  </defs>
  <g fill="none" fill-rule="evenodd">
    <mask id="ic_refresh-b" fill="#fff">
      <use xlink:href="#ic_refresh-a"/>
    </mask>
    <g mask="url(#ic_refresh-b)">
      <use fill="#0070FF" transform="translate(-13 -13)" xlink:href="#ic_refresh-c"/>
    </g>
  </g>
</svg>
