<svg xmlns="http://www.w3.org/2000/svg" xmlns:xlink="http://www.w3.org/1999/xlink" width="24" height="24" viewBox="0 0 24 24">
  <defs>
    <path id="ic_schedule-a" d="M11.99,2 C6.47,2 2,6.48 2,12 C2,17.52 6.47,22 11.99,22 C17.52,22 22,17.52 22,12 C22,6.48 17.52,2 11.99,2 L11.99,2 Z M12,4 C16.42,4 20,7.58 20,12 C20,16.42 16.42,20 12,20 C7.58,20 4,16.42 4,12 C4,7.58 7.58,4 12,4 Z M12.5,7 L11,7 L11,13 L16.25,16.15 L17,14.92 L12.5,12.25 L12.5,7 Z"/>
    <rect id="ic_schedule-c" width="50" height="50" x="0" y="0"/>
  </defs>
  <g fill="none" fill-rule="evenodd">
    <mask id="ic_schedule-b" fill="#fff">
      <use xlink:href="#ic_schedule-a"/>
    </mask>
    <g mask="url(#ic_schedule-b)">
      <use fill="#0070FF" transform="translate(-13 -13)" xlink:href="#ic_schedule-c"/>
    </g>
  </g>
</svg>
