<svg xmlns="http://www.w3.org/2000/svg" width="24" height="24" viewBox="0 0 24 24">
  <path fill-rule="evenodd" d="M8.71306134,18.1933715 C7.76229865,19.1563838 6.22150812,19.1563838 5.27074543,18.1933715 C4.31998275,17.2303593 4.31998275,15.6697173 5.27074543,14.706705 L11.8540346,8.03859715 L15.2963505,11.5252636 L8.71306134,18.1933715 Z M11.9645432,5.13673994 L18.1608091,11.4133313 L10.0021651,19.6770909 L10.0011914,19.6761047 L9.97928446,19.7002663 C8.26859317,21.432998 5.49419657,21.4334911 3.78301847,19.7002663 C2.07232718,17.9670415 2.07232718,15.1568997 3.78301847,13.424168 L3.78301847,13.424168 L3.80687273,13.4019788 L3.80589908,13.4009926 L11.9645432,5.13673994 Z M21.5,12.6153297 L21.5,16.2237904 C21.4985395,16.2346385 21.5,16.2449934 21.5,16.2563346 C21.5,18.7070109 19.5385956,20.6941791 17.1186051,20.6941791 C15.2691697,20.6941791 13.6908939,19.5314638 13.0478025,17.8904476 L13.0478025,17.8904476 L18.2558205,12.6153297 L21.5,12.6153297 Z M20.2829459,15.4767532 C20.0814017,15.4767532 19.9178296,15.6424328 19.9178296,15.8465736 C19.9178296,17.4239808 18.6623166,18.7079971 17.1186051,18.7079971 C16.917061,18.7079971 16.7534889,18.8736767 16.7534889,19.0778175 C16.7534889,19.2819584 16.917061,19.4476379 17.1186051,19.4476379 C19.0649181,19.4476379 20.6480621,17.8322625 20.6480621,15.8465736 C20.6480621,15.6424328 20.48449,15.4772463 20.2829459,15.4767532 Z M11.720463,9.41021982 L6.1249349,15.0778403 C5.51105279,15.6996317 5.51056597,16.7085016 6.1249349,17.330293 C6.738817,17.9520843 7.73436728,17.9520843 8.34824938,17.330293 L13.9442643,11.6626725 L11.720463,9.41021982 Z M15.4721743,3.24556073 C15.7954239,2.91814642 16.3241122,2.91814642 16.6473618,3.24556073 L16.6473618,3.24556073 L20.1622141,6.8056982 C20.4854637,7.1331125 20.4854637,7.6691055 20.1622141,7.99602671 L20.1622141,7.99602671 L19.3944964,8.77412878 L18.6267786,9.55173775 L17.7378423,10.4521271 L13.0478025,5.70116802 L13.936252,4.80077868 L14.7044566,4.0231697 Z M18.0148438,6.58380598 C17.9067694,6.47483224 17.7300531,6.47483224 17.6224655,6.58380598 L17.6224655,6.58380598 L16.9311788,7.28399922 C16.8231044,7.39346605 16.8231044,7.57196602 16.9311788,7.68143285 L16.9311788,7.68143285 L17.7100934,8.47038298 C17.817681,8.57935672 17.9943973,8.57935672 18.1024717,8.47038298 L18.1024717,8.47038298 L18.7932716,7.77018974 C18.901346,7.66072291 18.901346,7.48222294 18.7932716,7.37275611 L18.7932716,7.37275611 Z M16.0875169,4.63214059 C15.9799293,4.52267376 15.803213,4.52267376 15.6951386,4.63214059 L15.6951386,4.63214059 L15.0043387,5.33233383 C14.8962643,5.44180066 14.8962643,5.62030063 15.0043387,5.72976746 L15.0043387,5.72976746 L15.7827665,6.5182245 C15.8908409,6.62769133 16.0675572,6.62769133 16.1751448,6.51871759 L16.1751448,6.51871759 L16.8664315,5.81852435 C16.9745059,5.70905752 16.9745059,5.53006446 16.8664315,5.42109072 L16.8664315,5.42109072 Z"/>
</svg>
