<svg xmlns="http://www.w3.org/2000/svg" width="24" height="24" viewBox="0 0 24 24">
  <g fill="none" fill-rule="evenodd" transform="translate(1 3)">
    <path fill="#EFF6FF" fill-opacity=".6" d="M20.4285714,0 C21.2964475,-1.59426241e-16 22,0.703552536 22,1.57142857 L22,17.2857143 C22,18.1535903 21.2964475,18.8571429 20.4285714,18.8571429 L1.57142857,18.8571429 C0.703552536,18.8571429 1.06284161e-16,18.1535903 0,17.2857143 L0,1.57142857 C-1.06284161e-16,0.703552536 0.703552536,-6.26183636e-17 1.57142857,0 L20.4285714,0 Z M14.9285714,2.35714286 L7.07142857,2.35714286 C6.63749055,2.35714286 6.28571429,2.70891913 6.28571429,3.14285714 L6.28571429,3.14285714 L6.28557143,5.49914286 L4.71428571,5.5 C4.2803477,5.5 3.92857143,5.85177627 3.92857143,6.28571429 L3.92857143,6.28571429 L3.92857143,14.9285714 C3.92857143,15.3625094 4.2803477,15.7142857 4.71428571,15.7142857 L4.71428571,15.7142857 L17.2857143,15.7142857 C17.7196523,15.7142857 18.0714286,15.3625094 18.0714286,14.9285714 L18.0714286,14.9285714 L18.0714286,6.28571429 C18.0714286,5.85177627 17.7196523,5.5 17.2857143,5.5 L17.2857143,5.5 L15.7135714,5.49914286 L15.7142857,3.14285714 C15.7142857,2.70891913 15.3625094,2.35714286 14.9285714,2.35714286 L14.9285714,2.35714286 Z"/>
    <path fill="#FFF" d="M9.82960305,8.36420228 C9.12801076,8.87601078 8.46860283,9.44547127 7.90244449,10.0408163 C7.86470061,9.85256493 7.84693878,9.66313695 7.84693878,9.47017927 C7.84693878,7.92887092 9.02477013,6.67346939 10.4801301,6.67346939 C10.732126,6.67346939 10.9796815,6.71464938 11.2239067,6.7875968 C11.4581408,6.86289736 11.6768334,6.98173106 11.8877551,7.11938989 C11.1950437,7.46177213 10.4945616,7.8888675 9.82960305,8.36420228 M15.7380583,7.11530653 C15.2515881,6.38840442 14.1213836,6.42420706 12.8139949,6.90049068 C12.7909295,6.87662226 12.7835905,6.85492369 12.7605251,6.83105526 C12.3935756,6.51100134 11.9783985,6.27448692 11.5233811,6.136701 C11.2099014,6.045567 10.8964216,6 10.5829419,6 C8.7450491,6 7.24684669,7.55036288 7.24684669,9.45115767 C7.24684669,9.89923315 7.33596299,10.3147608 7.48588808,10.7085898 C6.6335168,11.7729047 6.22777548,12.8155211 6.69956771,13.5283191 C6.86731605,13.7811074 7.22587814,14.0816327 7.97655199,14.0816327 C8.19357641,14.0816327 8.36551847,13.8993647 8.36132476,13.6802091 C8.36132476,13.4512892 8.18833428,13.2777006 7.97235828,13.2777006 C7.65363642,13.2777006 7.42822458,13.2039255 7.3401567,13.0715642 C7.17240836,12.8155211 7.36741581,12.2209802 7.8958231,11.481059 C8.50600771,12.3403224 9.47789968,12.9023153 10.5829419,12.9023153 C12.3055077,12.9023153 13.7324171,11.5732779 13.9001654,9.7983348 C13.9305698,9.55639574 13.7544341,9.34157989 13.5248285,9.3231361 C13.2910293,9.3003526 13.0834407,9.46960145 13.0561816,9.71262544 C12.9324672,11.0318985 11.8683136,12.0256931 10.5829419,12.0256931 C9.68968197,12.0256931 8.90860373,11.5309657 8.47036118,10.7953841 C8.97046094,10.2518349 9.60161409,9.67139816 10.4057577,9.09855589 C12.7741547,7.42559609 14.7609241,7.07407925 15.0932756,7.57206145 C15.2306195,7.78253758 15.1100504,8.25339657 14.7797958,8.8023704 C14.6686626,8.99006304 14.7221323,9.23634182 14.9024618,9.35568396 C15.0890818,9.47394117 15.3270748,9.4142701 15.4424018,9.23091718 C16.108153,8.125375 15.9676638,7.47116309 15.7380583,7.11530653"/>
  </g>
</svg>
