<svg xmlns="http://www.w3.org/2000/svg" width="24" height="24" viewBox="0 0 24 24">
  <path fill-rule="evenodd" d="M16.9093625,11.9625355 C17.8304975,11.9625355 18.6908915,12.2167713 19.4316819,12.6519778 C19.8693932,12.9087184 20.2632708,13.2299572 20.6026693,13.6031703 C21.4085842,14.4898645 21.9045318,15.6646091 21.9045318,16.958331 C21.9045318,19.7167265 19.667758,21.9528742 16.9093625,21.9528742 C16.0902975,21.9528742 15.3200758,21.7524913 14.6375216,21.4030736 L14.6375216,21.4030736 L12.3205947,21.9879412 C12.0381801,22.0587014 11.7801871,21.8069704 11.8453115,21.5226772 L11.8453115,21.5226772 L12.0037392,20.8357396 L12.1389977,20.2489935 L12.3149589,19.4831552 L12.3393806,19.377328 L12.4032526,19.1024278 C12.0926591,18.4518096 11.9141931,17.7266741 11.9141931,16.958331 C11.9141931,16.4799169 11.9849534,16.0190363 12.1108188,15.5806988 C12.1884672,15.3095557 12.289911,15.0484318 12.410767,14.7979532 C13.0607589,13.445995 14.2993755,12.4328091 15.7966113,12.091532 C16.0520995,12.0332957 16.3138496,11.9969763 16.5818617,11.9794428 C16.6908199,11.9725547 16.7985257,11.9625355 16.9093625,11.9625355 Z M11.4323976,2 C16.6335855,2 20.8647952,6.23120962 20.8647952,11.4323976 C20.8647952,11.6265185 20.8472617,11.8156298 20.8353639,12.0072459 C20.6331025,11.8463135 20.4201957,11.7010359 20.1991483,11.5651512 C19.9812319,11.4317714 19.7558012,11.3109155 19.5222299,11.2038359 C19.5197251,11.2025835 19.5165941,11.2019573 19.5140893,11.2007049 L19.5140893,11.2007049 L19.5140893,11.0410248 C19.4633674,9.98400512 19.2116364,8.98021216 18.7920848,8.0665915 L18.7920848,8.0665915 L16.2253054,8.0665915 C16.4112858,8.87188017 16.5315155,9.7385361 16.5753493,10.6490258 C16.3110944,10.6628021 16.0505966,10.6903547 15.7957346,10.7360671 C15.7519009,9.79051041 15.6197734,8.89254465 15.4162596,8.0665915 L15.4162596,8.0665915 L11.8237704,8.0665915 L11.8237704,11.0410248 L14.6917503,11.0410248 C14.1669976,11.2382767 13.6760596,11.5012792 13.2277029,11.8237704 L13.2277029,11.8237704 L11.8237704,11.8237704 L11.8237704,13.2114218 C11.5075412,13.6397402 11.24266,14.1068827 11.0410248,14.6072137 L11.0410248,14.6072137 L11.0410248,11.8237704 L7.06091995,11.8237704 C7.0884726,12.88079 7.22310484,13.8839568 7.44916177,14.7982037 L7.44916177,14.7982037 L10.9708908,14.7982037 C10.8782137,15.0524394 10.7986867,15.312311 10.7391981,15.5809493 L10.7391981,15.5809493 L7.67208772,15.5809493 C8.35839906,17.7106435 9.55318194,19.2147674 10.9458429,19.5015654 L10.9458429,19.5015654 L10.9439643,19.5084536 L10.7705079,20.2598894 L10.6408852,20.8247186 C5.80977938,20.4201957 2,16.3661996 2,11.4323976 C2,6.23120962 6.23120962,2 11.4323976,2 Z M19.4460844,15.1724187 C19.2175227,15.1004061 18.9589035,15.1473708 18.7773066,15.3283416 L18.7773066,15.3283416 L18.5243232,15.5806988 L18.1517363,15.9532857 L16.1441504,17.9583668 L15.3920884,17.2044263 L14.9631438,16.7748555 C14.9105433,16.7216288 14.8472975,16.6865618 14.7840516,16.6552519 C14.5354516,16.5331436 14.2298677,16.5675844 14.0225967,16.7742293 C13.762099,17.0334746 13.762099,17.4549048 14.0213443,17.7154026 L14.0213443,17.7154026 L14.1284239,17.8224822 L14.6913745,18.386059 L14.9994632,18.6954001 L15.4540819,19.1506449 C15.6444456,19.3403824 15.894298,19.4361905 16.1441504,19.4361905 C16.2825398,19.4361905 16.420303,19.4036283 16.5486733,19.3447658 C16.6388456,19.304063 16.7233821,19.2483316 16.8004043,19.1788238 L16.8169985,19.1650474 L16.8169985,19.1650474 L16.8335927,19.1512711 L19.1517721,16.8355965 L19.7178537,16.2701411 C19.8969459,16.0910489 19.9439106,15.8368131 19.8762814,15.6095038 C19.8455978,15.5074338 19.7992592,15.4097471 19.7184799,15.3289678 C19.6395791,15.250067 19.5456497,15.2037285 19.4460844,15.1724187 Z M6.84613456,15.5809493 L4.48662622,15.5809493 C5.4509688,17.1890218 6.95384035,18.4339004 8.74789327,19.0669851 C7.93884742,18.2322652 7.28071492,17.0318465 6.84613456,15.5809493 L6.84613456,15.5809493 Z M6.27880055,11.8237704 L3.35070581,11.8237704 C3.40142772,12.88079 3.65315871,13.884583 4.07271035,14.7982037 L4.07271035,14.7982037 L6.63948972,14.7982037 C6.42720911,13.8776948 6.30384841,12.8770329 6.27880055,11.8237704 L6.27880055,11.8237704 Z M11.0410248,8.0665915 L7.44916177,8.0665915 C7.22310484,8.98083836 7.0884726,9.98400512 7.06091995,11.0410248 L7.06091995,11.0410248 L11.0410248,11.0410248 L11.0410248,8.0665915 Z M6.63948972,8.0665915 L4.07271035,8.0665915 C3.65315871,8.98021216 3.40142772,9.98400512 3.35070581,11.0410248 L3.35070581,11.0410248 L6.27880055,11.0410248 C6.30384841,9.9877623 6.42720911,8.98710032 6.63948972,8.0665915 L6.63948972,8.0665915 Z M11.0410248,3.351332 C11.0203603,3.3519582 10.9996958,3.35321059 10.9784051,3.35383679 C9.57134164,3.62310128 8.36403483,5.13661817 7.67208772,7.2838459 L7.67208772,7.2838459 L11.0410248,7.2838459 Z M8.74789327,3.79781009 C6.95384035,4.43089474 5.4509688,5.67577334 4.48662622,7.2838459 L4.48662622,7.2838459 L6.84613456,7.2838459 C7.28071492,5.83294865 7.93884742,4.63253 8.74789327,3.79781009 Z M11.8237704,3.351332 L11.8237704,7.2838459 L15.1933336,7.2838459 C14.5007603,5.13661817 13.2934535,3.62310128 11.88639,3.35383679 C11.8650993,3.35321059 11.8444349,3.3519582 11.8237704,3.351332 L11.8237704,3.351332 Z M14.1175281,3.79843629 C14.9259477,4.63253 15.5847064,5.83294865 16.0186606,7.2838459 L16.0186606,7.2838459 L18.3781689,7.2838459 C17.4138264,5.67577334 15.9109548,4.43089474 14.1175281,3.79843629 Z"/>
</svg>
