<svg xmlns="http://www.w3.org/2000/svg" width="24" height="24" viewBox="0 0 24 24">
  <g fill="none" fill-rule="evenodd" transform="translate(1)">
    <path fill="#000" d="M19.0478873 17.4L1.75211268 17.4C.83967604 17.4.1 18.139676.1 19.0521127L.1 22.3478873C.1 23.260324.83967604 24 1.75211268 24L19.0478873 24C19.960324 24 20.7 23.260324 20.7 22.3478873L20.7 19.0521127C20.7 18.139676 19.960324 17.4 19.0478873 17.4zM1.75211268 18L19.0478873 18C19.6289531 18 20.1 18.4710469 20.1 19.0521127L20.1 22.3478873C20.1 22.9289531 19.6289531 23.4 19.0478873 23.4L1.75211268 23.4C1.17104689 23.4.7 22.9289531.7 22.3478873L.7 19.0521127C.7 18.4710469 1.17104689 18 1.75211268 18zM2.69014085 10.1408451C3.59901567 10.1408451 4.34033288 10.8582445 4.37872016 11.7576711L4.38028169 11.8309859 4.38028169 13.8591549C4.38028169 14.7925939 3.62357986 15.5492958 2.69014085 15.5492958 1.78126602 15.5492958 1.03994881 14.8318963 1.00156153 13.9324697L1 13.8591549 1 11.8309859C1 10.8975469 1.75670183 10.1408451 2.69014085 10.1408451zM10.1267606 5.4084507C11.0356354 5.4084507 11.7769526 6.12585016 11.8153399 7.02527675L11.8169014 7.09859155 11.8169014 13.8591549C11.8169014 14.7925939 11.0601996 15.5492958 10.1267606 15.5492958 9.21788573 15.5492958 8.47656852 14.8318963 8.43818124 13.9324697L8.43661972 13.8591549 8.43661972 7.09859155C8.43661972 6.16515254 9.19332155 5.4084507 10.1267606 5.4084507zM17.5633803 0C18.4722551 0 19.2135723.717399451 19.2519596 1.61682604L19.2535211 1.69014085 19.2535211 13.8591549C19.2535211 14.7925939 18.4968193 15.5492958 17.5633803 15.5492958 16.6545055 15.5492958 15.9131882 14.8318963 15.874801 13.9324697L15.8732394 13.8591549 15.8732394 1.69014085C15.8732394.756701831 16.6299413 0 17.5633803 0z" transform="translate(.6)"/>
    <!-- <text fill="#000" font-family="monospace" font-size="4" font-weight="400" letter-spacing=".2">
      <tspan x="5" y="22.4">5G-1</tspan>
    </text> -->
  </g>
</svg>
