<svg version="1.1" xmlns="http://www.w3.org/2000/svg" xmlns:xlink="http://www.w3.org/1999/xlink" width="24" height="24"
	 viewBox="0 0 24 24" style="enable-background:new 0 0 24 24;" xml:space="preserve">
	<path fill="#000" d="M2.3,15.5c1.1,0,2.1,1.1,2.1,2.5l0,0.1v3.2c0,1.5-1,2.7-2.1,2.7c-1.1,0-2.1-1.1-2.1-2.5l0-0.1v-3.2
	C0.1,16.7,1.1,15.5,2.3,15.5z M12.2,8.1c1.1,0,2.1,1.1,2.1,2.5l0,0.1v10.6c0,1.5-1,2.6-2.1,2.6c-1.1,0-2.1-1.1-2.1-2.5l0-0.1V10.8
	C10.1,9.3,11,8.1,12.2,8.1z M22,0c1.1,0,2.1,1.1,2.1,2.5l0,0.1v18.8c0,1.4-1,2.6-2.1,2.6c-1.1,0-2.1-1.1-2.1-2.5l0-0.1V2.6
	C19.8,1.2,20.8,0,22,0z"/>
</svg>
