<?xml version="1.0" encoding="utf-8"?>
<!-- Generator: Adobe Illustrator 21.0.0, SVG Export Plug-In . SVG Version: 6.00 Build 0)  -->
<svg version="1.1" id="图层_1" xmlns="http://www.w3.org/2000/svg" xmlns:xlink="http://www.w3.org/1999/xlink" x="0px" y="0px"
	 viewBox="0 0 199 48" style="enable-background:new 0 0 199 48;" xml:space="preserve">
<g>
	<g>
		<path d="M60.3,37H36.8l-3.4-3.8h21l1.4-1.6v-5.7H34.5V15l3.5-4.1h26.6l-3.3,3.8H43.9l-1.7,1.9V22h21.5v11L60.3,37z"/>
		<path d="M101.1,37L84.9,26.5L68.7,37V10.9h7.9v14.8l8.3-5.3l8.3,5.3V10.9h7.9V37z"/>
		<path d="M129.1,37l-14-16h13.2v-6.2h-14.4V37H106V10.9h30v13.9h-8.3L138.4,37H129.1z"/>
		<path d="M159.3,14.7V37h-7.8V14.7h-9.8l-3.3-3.8h33.8l-3.3,3.8H159.3z"/>
	</g>
</g>
</svg>
